<?xml version="1.0" standalone="no"?>
<!DOCTYPE svg PUBLIC "-//W3C//DTD SVG 20010904//EN"
 "http://www.w3.org/TR/2001/REC-SVG-20010904/DTD/svg10.dtd">
<svg version="1.0" xmlns="http://www.w3.org/2000/svg"
 width="200.000000pt" height="200.000000pt" viewBox="0 0 200.000000 200.000000"
 preserveAspectRatio="xMidYMid meet">

<g transform="translate(0.000000,200.000000) scale(0.100000,-0.100000)"
fill="#fff" stroke="none">
<path d="M167 1832 l-57 -57 290 -290 290 -290 57 58 58 57 -290 290 -290 290
-58 -58z"/>
<path d="M667 1832 l-57 -57 165 -165 165 -165 57 58 58 57 -165 165 -165 165
-58 -58z"/>
<path d="M167 1332 l-57 -57 168 -168 167 -167 58 58 57 57 -168 168 -167 167
-58 -58z"/>
<path d="M1101 1314 c-196 -53 -364 -223 -416 -420 -19 -75 -19 -213 0 -288
25 -94 83 -194 155 -266 228 -228 592 -228 820 0 228 228 228 592 0 820 -72
72 -172 130 -266 155 -73 19 -221 19 -293 -1z m87 -206 c46 -196 225 -374 420
-419 48 -12 51 -14 45 -38 -23 -102 -116 -217 -212 -266 -29 -14 -54 -25 -55
-23 -1 2 -17 35 -36 73 -44 88 -150 197 -237 243 -66 35 -195 72 -250 72 l-35
0 7 43 c19 125 82 231 178 299 30 21 133 67 152 68 6 0 16 -24 23 -52z m282
-4 c57 -35 119 -105 150 -168 37 -73 38 -90 8 -80 -100 30 -205 121 -251 216
-39 82 -37 92 16 71 23 -9 58 -26 77 -39z m-465 -558 c63 -29 134 -92 174
-154 17 -27 31 -51 31 -54 0 -12 -87 14 -147 43 -63 30 -139 103 -177 169
l-19 33 44 -7 c24 -4 67 -17 94 -30z"/>
</g>
</svg>
