<?xml version="1.0" standalone="no"?>
<!DOCTYPE svg PUBLIC "-//W3C//DTD SVG 20010904//EN"
 "http://www.w3.org/TR/2001/REC-SVG-20010904/DTD/svg10.dtd">
<svg version="1.0" xmlns="http://www.w3.org/2000/svg"
 width="30.000000pt" height="30.000000pt" viewBox="0 0 30.000000 30.000000"
 preserveAspectRatio="xMidYMid meet">

<g transform="translate(0.000000,30.000000) scale(0.100000,-0.100000)"
fill="#fff" stroke="none">
<path d="M135 271 c-3 -6 -4 -15 0 -20 4 -7 -15 -63 -32 -89 -4 -8 -52 34 -53
45 0 18 -20 27 -32 15 -8 -8 -8 -15 0 -25 7 -8 15 -35 18 -61 l7 -46 107 0
107 0 7 46 c3 26 11 53 17 60 11 14 4 34 -12 34 -5 0 -13 -8 -16 -17 -7 -17
-42 -52 -53 -53 -8 0 -35 71 -35 94 0 22 -20 33 -30 17z"/>
<path d="M30 60 c0 -6 47 -10 120 -10 73 0 120 4 120 10 0 6 -47 10 -120 10
-73 0 -120 -4 -120 -10z"/>
</g>
</svg>
