<?xml version="1.0" standalone="no"?>
<!DOCTYPE svg PUBLIC "-//W3C//DTD SVG 20010904//EN"
 "http://www.w3.org/TR/2001/REC-SVG-20010904/DTD/svg10.dtd">
<svg version="1.0" xmlns="http://www.w3.org/2000/svg"
 width="128.000000pt" height="128.000000pt" viewBox="0 0 128.000000 128.000000"
 preserveAspectRatio="xMidYMid meet">

<g transform="translate(0.000000,128.000000) scale(0.100000,-0.100000)"
fill="#fff" stroke="none">
<path d="M613 1238 c-6 -7 -47 -85 -91 -173 -44 -88 -89 -168 -101 -179 -15
-14 -66 -25 -205 -46 -181 -26 -216 -37 -216 -67 0 -8 63 -75 139 -149 92 -89
142 -145 146 -163 3 -15 -8 -112 -26 -215 -32 -193 -31 -216 8 -216 8 0 87 39
176 86 115 61 172 86 197 86 25 0 82 -25 197 -86 89 -47 168 -86 176 -86 39 0
40 23 8 216 -18 103 -29 200 -26 215 4 18 54 74 146 163 76 74 139 141 139
149 0 30 -35 41 -217 67 -153 23 -189 31 -206 49 -12 12 -60 97 -107 189 -65
128 -90 168 -106 170 -11 2 -25 -3 -31 -10z"/>
</g>
</svg>
