<?xml version="1.0" standalone="no"?>
<!DOCTYPE svg PUBLIC "-//W3C//DTD SVG 20010904//EN"
 "http://www.w3.org/TR/2001/REC-SVG-20010904/DTD/svg10.dtd">
<svg version="1.0" xmlns="http://www.w3.org/2000/svg"
 width="128.000000pt" height="128.000000pt" viewBox="0 0 128.000000 128.000000"
 preserveAspectRatio="xMidYMid meet">

<g transform="translate(0.000000,128.000000) scale(0.100000,-0.100000)"
fill="#fff" stroke="none">
<path d="M499 1155 c-176 -48 -327 -202 -374 -380 -8 -33 -15 -70 -15 -83 l0
-25 94 5 c77 4 105 10 159 35 157 74 247 214 247 385 l0 78 -32 -1 c-18 0 -54
-7 -79 -14z"/>
<path d="M720 1097 c0 -290 -233 -529 -517 -531 -79 -1 -83 -2 -83 -24 0 -35
36 -129 70 -183 64 -98 157 -174 265 -214 102 -39 101 -40 107 62 11 185 98
337 247 433 79 50 155 73 263 78 l98 4 -6 27 c-42 179 -161 321 -322 386 -31
12 -72 25 -89 28 l-33 7 0 -73z"/>
<path d="M1004 606 c-83 -19 -137 -48 -201 -108 -92 -88 -133 -185 -133 -316
l0 -74 45 7 c171 25 325 135 399 286 34 69 66 192 54 204 -13 13 -108 13 -164
1z"/>
</g>
</svg>
