<?xml version="1.0" standalone="no"?>
<!DOCTYPE svg PUBLIC "-//W3C//DTD SVG 20010904//EN"
 "http://www.w3.org/TR/2001/REC-SVG-20010904/DTD/svg10.dtd">
<svg version="1.0" xmlns="http://www.w3.org/2000/svg"
 width="128.000000pt" height="128.000000pt" viewBox="0 0 128.000000 128.000000"
 preserveAspectRatio="xMidYMid meet">

<g transform="translate(0.000000,128.000000) scale(0.100000,-0.100000)"
fill="#fff" stroke="none">
<path d="M565 1170 c-219 -30 -403 -203 -450 -425 -18 -88 -18 -122 0 -209 46
-215 208 -377 425 -422 295 -62 584 144 632 449 53 347 -254 654 -607 607z
m220 -67 c117 -36 235 -135 289 -241 30 -60 56 -159 56 -219 0 -38 -3 -43 -23
-43 -40 0 -129 30 -202 68 -135 71 -250 217 -289 368 -26 99 -27 97 52 90 37
-4 90 -14 117 -23z m-174 -201 c49 -101 147 -209 240 -265 66 -38 201 -87 244
-87 l24 0 -15 -52 c-43 -146 -175 -279 -319 -321 l-51 -15 -12 67 c-30 156
-153 331 -293 414 -66 38 -201 87 -244 87 l-24 0 15 53 c43 144 169 273 312
317 l57 18 13 -67 c7 -36 31 -103 53 -149z m-367 -237 c200 -52 369 -222 420
-421 26 -100 27 -98 -54 -90 -252 25 -433 207 -457 458 -7 79 -8 78 91 53z"/>
</g>
</svg>
