<?xml version="1.0" standalone="no"?>
<!DOCTYPE svg PUBLIC "-//W3C//DTD SVG 20010904//EN"
 "http://www.w3.org/TR/2001/REC-SVG-20010904/DTD/svg10.dtd">
<svg version="1.0" xmlns="http://www.w3.org/2000/svg"
 width="200.000000pt" height="200.000000pt" viewBox="0 0 200.000000 200.000000"
 preserveAspectRatio="xMidYMid meet">
<metadata>
Created by potrace 1.16, written by Peter Selinger 2001-2019
</metadata>
<g transform="translate(0.000000,200.000000) scale(0.100000,-0.100000)"
fill="#fff" stroke="none">
<path d="M1129 1502 c-85 -22 -167 -73 -232 -142 l-52 -55 -180 -5 c-172 -5
-180 -6 -180 -25 0 -19 8 -20 163 -23 89 -1 162 -7 162 -12 0 -5 -4 -20 -10
-34 -8 -21 -16 -25 -57 -28 -40 -3 -48 -6 -48 -23 0 -18 8 -20 68 -23 57 -2
68 0 73 15 30 90 96 183 167 234 31 22 51 29 87 29 109 0 310 -74 491 -181 81
-49 90 -57 100 -94 6 -22 9 -80 7 -130 -3 -75 -9 -101 -35 -157 -17 -37 -50
-87 -73 -112 -42 -45 -127 -106 -148 -106 -7 0 -44 44 -83 98 -181 245 -348
349 -474 293 -58 -26 -53 -26 -57 2 -3 21 -7 22 -127 25 -128 3 -155 -4 -131
-33 10 -12 34 -15 111 -15 l99 0 0 -35 0 -35 -226 0 -225 0 3 -22 3 -23 231
-3 231 -2 11 -26 c7 -14 12 -29 12 -34 0 -6 -67 -10 -166 -10 l-165 0 3 -22
c3 -23 5 -23 182 -26 l178 -2 62 -64 c72 -74 156 -121 260 -143 80 -17 187
-11 223 13 12 7 30 14 39 14 30 0 107 44 160 93 62 57 106 122 135 203 30 82
30 225 0 308 -88 247 -342 383 -592 318z m195 -42 c85 -14 178 -61 237 -120
28 -28 49 -53 47 -55 -2 -2 -51 20 -110 50 -58 30 -152 70 -208 89 -94 32
-104 42 -45 45 11 0 46 -3 79 -9z m-271 -507 c27 -15 82 -60 121 -100 79 -79
191 -227 182 -241 -9 -15 -102 -21 -168 -11 -128 20 -251 106 -311 217 -55
100 -53 125 8 157 40 21 103 13 168 -22z"/>
<path d="M327 1173 c-4 -3 -7 -15 -7 -25 0 -17 11 -18 154 -18 121 0 155 3
159 14 12 30 -16 36 -158 36 -78 0 -145 -3 -148 -7z"/>
<path d="M190 1045 c-10 -12 -10 -18 0 -30 10 -12 38 -15 130 -15 92 0 120 3
130 15 10 12 10 18 0 30 -10 12 -38 15 -130 15 -92 0 -120 -3 -130 -15z"/>
</g>
</svg>
