<?xml version="1.0" standalone="no"?>
<!DOCTYPE svg PUBLIC "-//W3C//DTD SVG 20010904//EN"
 "http://www.w3.org/TR/2001/REC-SVG-20010904/DTD/svg10.dtd">
<svg version="1.0" xmlns="http://www.w3.org/2000/svg"
 width="200.000000pt" height="200.000000pt" viewBox="0 0 200.000000 200.000000"
 preserveAspectRatio="xMidYMid meet">

<g transform="translate(0.000000,200.000000) scale(0.100000,-0.100000)"
fill="#fff" stroke="none">
<path d="M836 1885 c-351 -73 -614 -318 -708 -660 -31 -114 -31 -334 1 -450
86 -317 329 -560 646 -646 115 -32 335 -32 450 0 312 85 561 334 646 646 32
115 32 335 0 450 -86 317 -333 564 -646 646 -105 27 -294 34 -389 14z m89 -92
c26 -82 31 -223 11 -303 -28 -111 -72 -188 -155 -271 -123 -122 -257 -175
-426 -167 -92 5 -205 33 -205 52 0 36 45 189 74 251 109 236 323 413 573 474
111 28 107 29 128 -36z m105 20 c68 -241 4 -490 -175 -668 -178 -179 -427
-243 -667 -175 -34 10 -38 14 -38 44 l0 32 67 -17 c85 -22 229 -24 308 -4 220
56 394 230 450 450 20 79 18 223 -4 308 l-17 67 32 0 c30 0 34 -4 44 -37z
m168 17 c312 -75 557 -320 632 -632 11 -46 20 -95 20 -110 l0 -26 -57 16 c-73
20 -258 22 -333 3 -270 -67 -474 -271 -541 -541 -19 -75 -17 -260 3 -333 l16
-57 -26 0 c-50 0 -193 40 -267 74 -185 85 -335 236 -420 419 -35 76 -75 219
-75 269 l0 26 58 -16 c78 -22 257 -21 342 1 36 9 107 38 159 63 76 38 108 61
176 129 68 68 91 100 129 176 25 52 54 123 63 159 22 84 22 263 1 343 l-16 57
26 0 c15 0 64 -9 110 -20z m507 -779 c33 -5 79 -14 103 -20 39 -11 42 -14 42
-45 l0 -33 -67 18 c-77 22 -212 25 -295 8 -169 -35 -340 -170 -416 -329 -22
-47 -45 -109 -51 -138 -16 -78 -12 -217 8 -295 l17 -67 -32 0 c-30 0 -34 4
-44 37 -48 170 -33 325 47 492 122 256 411 412 688 372z m53 -116 c100 -23 97
-19 77 -111 -71 -324 -318 -577 -637 -654 -46 -11 -88 -20 -94 -20 -36 0 -66
230 -45 342 40 206 220 394 424 444 73 17 196 17 275 -1z"/>
<path d="M1390 1653 c0 -11 16 -25 40 -36 60 -28 144 -109 176 -172 18 -35 35
-55 47 -55 26 0 21 30 -14 86 -43 68 -84 110 -153 155 -64 42 -96 49 -96 22z"/>
<path d="M209 1846 c-11 -19 -36 -44 -55 -55 -19 -11 -34 -25 -34 -30 0 -5 16
-19 35 -31 19 -12 43 -35 52 -51 22 -37 43 -37 65 1 10 17 31 38 48 48 38 22
38 43 1 65 -16 9 -39 33 -51 52 -12 19 -26 35 -31 35 -5 0 -19 -15 -30 -34z
m54 -60 l24 -24 -24 -25 -25 -24 -24 23 -23 24 22 24 c12 13 23 24 24 25 1 1
13 -10 26 -23z"/>
<path d="M1728 320 c-10 -17 -31 -38 -48 -48 -38 -22 -38 -43 -1 -65 16 -9 39
-33 51 -52 12 -19 26 -35 31 -35 5 0 19 15 30 34 11 19 36 44 55 55 19 11 34
25 34 30 0 5 -16 19 -35 31 -19 12 -43 35 -52 51 -22 37 -43 37 -65 -1z m57
-105 l-25 -24 -24 24 -23 23 24 25 25 24 23 -23 24 -24 -24 -25z"/>
</g>
</svg>
