<?xml version="1.0" encoding="UTF-8"?>
<svg xmlns="http://www.w3.org/2000/svg" xml:space="preserve" width="800px" height="819px" version="1.1" style="shape-rendering:geometricPrecision; text-rendering:geometricPrecision; image-rendering:optimizeQuality; fill-rule:evenodd; clip-rule:evenodd"
viewBox="0 0 878.06 899.17">
 <defs>
  <style type="text/css">
   <![CDATA[
    .fil0 {fill:#fff}
   ]]>
  </style>
 </defs>
  <metadata id="CorelCorpID_0Corel-Layer"/>
  <path class="fil0" d="M424.67 77.73c47.54,55.31 70.69,89.4 71.81,178.84 0,76.55 -21.33,141.15 -71.81,200.67 28.17,42.08 120.52,77.73 187.46,77.73 57.75,0 149.99,-28.58 182.9,-77.73 -13.68,-25.85 -24.68,-29.53 -42.66,-71.65 -31.8,-74.51 -36.69,-154.03 0.87,-235.34 15.26,-30.29 25.74,-44.13 45.6,-68.71 -26.13,-39.02 -117.84,-81.54 -186.71,-81.54 -54.61,0 -144.11,28.08 -187.46,77.73zm-103.61 386.54c-5.69,-5.19 -14.61,-4.79 -19.77,0.92l-284.08 314.35c-5.16,5.71 -4.77,14.59 0.92,19.77 5.69,5.19 14.61,4.79 19.77,-0.92l284.08 -314.35c5.17,-5.71 4.77,-14.59 -0.92,-19.77zm-78.09 343.9c-6.63,-6.04 -17,-5.55 -23.03,1.08l-57.08 62.66c-6.03,6.62 -5.55,16.99 1.08,23.03 6.63,6.04 17,5.55 23.03,-1.08l57.08 -62.66c6.03,-6.63 5.55,-16.99 -1.08,-23.03zm-30.06 -87.24c-6.63,-6.04 -16.99,-5.55 -23.03,1.07l-57.07 62.66c-6.04,6.63 -5.56,17 1.07,23.04 6.63,6.04 17,5.55 23.04,-1.08l57.07 -62.66c6.04,-6.63 5.55,-16.99 -1.08,-23.03zm-128.57 -147.72c-6.63,-6.04 -17,-5.56 -23.04,1.07l-57.07 62.66c-6.04,6.63 -5.55,17 1.08,23.04 6.63,6.03 16.99,5.55 23.03,-1.08l57.07 -62.66c6.04,-6.63 5.56,-17 -1.07,-23.03zm202.52 -203.74c-6.63,-6.04 -16.93,-5.49 -23.03,1.08l-145.41 156.52c-6.1,6.57 -5.55,16.99 1.08,23.03 6.63,6.04 16.93,5.5 23.03,-1.07l145.41 -156.52c6.1,-6.57 5.55,-17 -1.08,-23.04zm102.24 167.23c-5.69,-5.19 -14.59,-4.77 -19.78,0.92l-143.02 157.03c-5.18,5.69 -4.76,14.59 0.93,19.77 5.69,5.19 14.59,4.77 19.77,-0.92l143.02 -157.03c5.19,-5.69 4.77,-14.59 -0.92,-19.77zm71.64 53.12c-6.63,-6.04 -16.99,-5.56 -23.03,1.07l-166.59 182.91c-6.04,6.63 -5.56,16.99 1.07,23.03 6.63,6.04 17,5.55 23.04,-1.07l166.59 -182.91c6.03,-6.63 5.55,-16.99 -1.08,-23.03zm287.63 -332.92c0,57.11 22.08,143.11 63.85,187.72 21.93,-20.88 69.22,-64.23 65.65,-183.28 -2.96,-98.93 -52.94,-157.54 -64.55,-165.32 -31.33,34.53 -64.95,94.12 -64.95,160.88zm-401.44 -9.99c0,66.93 10.21,141.47 59.37,191.97 39.62,-35.65 68.76,-90.76 66.87,-185.79 -1.73,-86.45 -41.3,-131.63 -62.22,-157.07 -30.4,20.36 -64.02,97.53 -64.02,150.89z"/>
</svg>
