<?xml version="1.0" encoding="UTF-8"?>
<!DOCTYPE svg PUBLIC "-//W3C//DTD SVG 1.1//EN" "http://www.w3.org/Graphics/SVG/1.1/DTD/svg11.dtd">
<!-- Creator: CorelDRAW -->
<svg xmlns="http://www.w3.org/2000/svg" xml:space="preserve" width="231px" height="247px" version="1.1" style="shape-rendering:geometricPrecision; text-rendering:geometricPrecision; image-rendering:optimizeQuality; fill-rule:evenodd; clip-rule:evenodd"
viewBox="0 0 50.99 54.39"
 xmlns:xlink="http://www.w3.org/1999/xlink"
 xmlns:xodm="http://www.corel.com/coreldraw/odm/2003">
 <defs>
  <style type="text/css">
   <![CDATA[
    .fil0 {fill:#268750}
   ]]>
  </style>
 </defs>
 <g id="Слой_x0020_1">
  <metadata id="CorelCorpID_0Corel-Layer"/>
  <path class="fil0" d="M23.69 53.75c7.8,-2.06 13.2,-8.74 14.08,-16.37 0.48,-0.15 0.95,-0.33 1.43,-0.53 9.68,-4.04 14.33,-15.24 10.38,-25.02 -3.94,-9.77 -14.99,-14.41 -24.68,-10.37 -6.6,2.76 -10.86,8.85 -11.65,15.55 0.3,-0.1 0.61,-0.19 0.92,-0.27 -10.11,2.7 -16.18,13.15 -13.56,23.36 2.62,10.23 12.95,16.34 23.08,13.65zm18.94 -24.74c-0.21,-0.82 -0.5,-1.61 -0.87,-2.36 0.19,-0.19 0.39,-0.38 0.6,-0.58 1.17,-1.12 2.16,-1.9 3.4,-2.47 -0.64,1.99 -1.7,3.84 -3.13,5.41zm-1.98 -4.2c-4.48,-6.27 -14.48,-9.43 -22.68,-8.72 0.99,-4.52 4.33,-8.61 8.64,-10.41 4.33,-1.81 7.28,-1.94 10.91,-0.05 -1.83,2.37 -3.85,4.05 -8.04,5.81 -3.59,1.49 -7.41,0.8 -9.9,0.54 -0.3,0.53 -0.7,1.36 -1.18,2.58 3.38,-0.51 9,0.05 11.87,-1.15 4.62,-1.93 6.49,-2.96 9.75,-6.54 1.95,1.51 4.39,4.25 5.38,6.71 1,2.46 1.27,5.05 0.93,7.51 -2.65,0.9 -4.16,2.3 -5.68,3.72zm-31.97 20.71c5.02,-1.72 7.88,0.53 12.71,-0.75 5.18,-1.37 8.27,-6.75 6.92,-12.01 -1.34,-5.27 -6.63,-8.42 -11.81,-7.05 -4.83,1.28 -6.24,4.66 -11.45,5.66 -0.66,2.4 -0.73,5 -0.07,7.57 0.66,2.58 1.97,4.82 3.7,6.58zm-2.73 -16.55c1.31,-0.4 2.39,-1.03 3.69,-1.99 2.16,-1.58 3.68,-2.63 6.33,-3.34 6.3,-1.67 12.73,2.18 14.37,8.58 1.65,6.4 -2.12,12.95 -8.42,14.62 -2.66,0.7 -4.48,0.54 -7.13,0.23 -1.59,-0.19 -2.84,-0.2 -4.18,0.1 3.35,2.38 7.67,3.3 11.95,2.17 7.72,-2.05 12.35,-10.02 10.36,-17.8 -2,-7.79 -9.87,-12.44 -17.58,-10.4 -4.28,1.14 -7.61,4.09 -9.39,7.83z"/>
 </g>
</svg>
