<?xml version="1.0" standalone="no"?>
<!DOCTYPE svg PUBLIC "-//W3C//DTD SVG 20010904//EN"
 "http://www.w3.org/TR/2001/REC-SVG-20010904/DTD/svg10.dtd">
<svg version="1.0" xmlns="http://www.w3.org/2000/svg"
 width="128.000000pt" height="128.000000pt" viewBox="0 0 128.000000 128.000000"
 preserveAspectRatio="xMidYMid meet">

<g transform="translate(0.000000,128.000000) scale(0.100000,-0.100000)"
fill="#fff" stroke="none">
<path d="M572 1268 c-7 -7 -12 -38 -12 -70 l0 -58 -59 -29 c-131 -63 -171
-117 -179 -237 -4 -65 -2 -80 23 -129 35 -72 86 -111 227 -172 136 -59 168
-86 168 -141 0 -32 -6 -45 -30 -66 -55 -46 -146 -46 -269 0 -35 13 -69 24 -77
24 -13 0 -54 -114 -54 -151 0 -25 61 -55 158 -77 l77 -18 3 -61 c2 -36 8 -66
17 -73 8 -6 40 -10 77 -8 l63 3 3 45 c5 102 8 106 70 131 67 27 135 87 164
144 13 25 23 66 26 110 4 64 1 75 -30 135 -42 82 -94 121 -238 184 -153 66
-188 112 -136 173 23 27 28 28 113 28 67 0 102 -6 145 -22 54 -21 58 -21 67
-5 16 32 42 134 37 148 -7 17 -60 39 -133 54 -32 7 -61 17 -65 24 -4 6 -8 31
-8 57 0 25 -5 50 -12 57 -7 7 -37 12 -68 12 -31 0 -61 -5 -68 -12z"/>
</g>
</svg>
