<?xml version="1.0" standalone="no"?>
<!DOCTYPE svg PUBLIC "-//W3C//DTD SVG 20010904//EN"
 "http://www.w3.org/TR/2001/REC-SVG-20010904/DTD/svg10.dtd">
<svg version="1.0" xmlns="http://www.w3.org/2000/svg"
 width="32.000000pt" height="32.000000pt" viewBox="0 0 32.000000 32.000000"
 preserveAspectRatio="xMidYMid meet">

<g transform="translate(0.000000,32.000000) scale(0.100000,-0.100000)"
fill="#fff" stroke="none">
<path d="M135 280 c-3 -6 -4 -23 0 -38 3 -16 0 -35 -8 -46 -12 -17 -16 -18
-33 -5 -10 8 -19 25 -19 39 0 20 -5 25 -25 25 -18 0 -26 -6 -28 -23 -2 -13 3
-24 12 -28 16 -6 46 -91 46 -131 0 -22 3 -23 80 -23 77 0 80 1 80 23 0 40 30
125 46 131 9 4 14 15 12 28 -2 17 -10 23 -28 23 -20 0 -25 -5 -25 -25 0 -14
-8 -31 -18 -39 -26 -19 -42 0 -42 52 0 35 -3 42 -22 45 -11 2 -24 -2 -28 -8z
m35 -20 c0 -5 -4 -10 -10 -10 -5 0 -10 5 -10 10 0 6 5 10 10 10 6 0 10 -4 10
-10z m-110 -30 c0 -5 -4 -10 -10 -10 -5 0 -10 5 -10 10 0 6 5 10 10 10 6 0 10
-4 10 -10z m220 0 c0 -5 -4 -10 -10 -10 -5 0 -10 5 -10 10 0 6 5 10 10 10 6 0
10 -4 10 -10z m-100 -50 c14 -34 14 -34 42 -19 18 9 20 9 15 -4 -3 -9 -9 -32
-13 -51 l-6 -36 -57 0 -58 0 -10 47 c-12 52 -10 64 9 45 18 -18 24 -15 38 18
16 38 24 38 40 0z"/>
</g>
</svg>
