<?xml version="1.0" encoding="UTF-8"?>
<!DOCTYPE svg PUBLIC "-//W3C//DTD SVG 1.1//EN" "http://www.w3.org/Graphics/SVG/1.1/DTD/svg11.dtd">
<!-- Creator: CorelDRAW -->
<svg xmlns="http://www.w3.org/2000/svg" xml:space="preserve" width="237px" height="248px" version="1.1" style="shape-rendering:geometricPrecision; text-rendering:geometricPrecision; image-rendering:optimizeQuality; fill-rule:evenodd; clip-rule:evenodd"
viewBox="0 0 1154.33 1207.31"
 xmlns:xlink="http://www.w3.org/1999/xlink"
 xmlns:xodm="http://www.corel.com/coreldraw/odm/2003">
 <defs>
  <style type="text/css">
   <![CDATA[
    .fil0 {fill:#268750}
   ]]>
  </style>
 </defs>
 <g id="Слой_x0020_1">
  <metadata id="CorelCorpID_0Corel-Layer"/>
  <path class="fil0" d="M231.22 1207.31l0 -289.6 135.18 0 -0.15 -30.59c71.01,-66.76 104.11,-132.09 93.34,-195.78 -15.36,-3.54 -30.71,-7.07 -46.07,-10.6l-1.28 -44.63c11.92,-9.52 25.51,-16.83 37.42,-26.35 -29.26,-4.54 -53.85,-21.64 -72.92,-53.59 -6.17,37.79 -12.33,75.58 -18.5,113.37l-111.14 -18.99 3.97 -65.27c-137.27,-37.84 -272.52,-165.5 -248.21,-471.1 73.22,0 113.42,0 186.65,0l1.99 106.06 -85.4 0c16.8,179.51 97.85,256.19 226.4,256.96 -49.27,-91.64 -86.9,-206.45 -83.45,-403.06 -12.94,-2.7 -25.88,-5.4 -38.82,-8.11l-1.32 -66.03 736.51 0 -1.32 66.03c-12.94,2.71 -25.87,5.41 -38.82,8.11 3.45,196.61 -34.18,311.42 -83.44,403.06 128.54,-0.77 209.6,-77.45 226.39,-256.96l-85.39 0 1.98 -106.06c73.23,0 113.43,0 186.66,0 24.3,305.6 -110.95,433.26 -248.22,471.1l3.97 65.27 -111.13 18.99c-6.17,-37.79 -12.33,-75.58 -18.5,-113.37 -19.07,31.95 -43.66,49.05 -72.93,53.59 11.92,9.52 25.5,16.83 37.42,26.35l-1.28 44.63c-15.35,3.53 -30.71,7.06 -46.07,10.6 -10.77,63.69 22.33,129.02 93.34,195.78l-0.15 30.59 135.19 0 0 289.6 -691.9 0zm86.55 -207.11l516.75 0 0 129.93 -516.75 0 0 -129.93z"/>
 </g>
</svg>
