<?xml version="1.0" encoding="UTF-8"?>
<!DOCTYPE svg PUBLIC "-//W3C//DTD SVG 1.1//EN" "http://www.w3.org/Graphics/SVG/1.1/DTD/svg11.dtd">
<!-- Creator: CorelDRAW -->
<svg xmlns="http://www.w3.org/2000/svg" xml:space="preserve" width="240px" height="249px" version="1.1" style="shape-rendering:geometricPrecision; text-rendering:geometricPrecision; image-rendering:optimizeQuality; fill-rule:evenodd; clip-rule:evenodd"
viewBox="0 0 106.46 110.49"
 xmlns:xlink="http://www.w3.org/1999/xlink"
 xmlns:xodm="http://www.corel.com/coreldraw/odm/2003">
 <defs>
  <style type="text/css">
   <![CDATA[
    .fil0 {fill:#23b123}
   ]]>
  </style>
 </defs>
 <g id="Слой_x0020_1">
  <metadata id="CorelCorpID_0Corel-Layer"/>
  <path class="fil0" d="M86.36 58.65c10.43,0.66 19.41,-7.2 20.06,-17.56 0.65,-10.35 -7.28,-19.27 -17.71,-19.93 -10.43,-0.65 -19.41,7.21 -20.06,17.56 -0.65,10.35 7.28,19.28 17.71,19.93zm-53 -17.88l0.01 0.1c0.02,0.14 -0.07,0.26 -0.2,0.28l-1.3 0.18c-0.13,0.02 -0.26,-0.07 -0.28,-0.2l-0.01 -0.1c-0.02,-0.14 0.07,-0.26 0.2,-0.28l1.3 -0.18c0.14,-0.02 0.26,0.07 0.28,0.2zm46.94 19.3c-8.31,8.58 -19.43,12.82 -29.81,11.96 -9.84,1.44 -17.32,6.3 -22.69,13.13l-0.47 2.09 -16.69 22.28 -4.45 0.96 -5.86 -4.39 -0.33 -4.54 16.69 -22.28 1.87 -1.04c5.05,-7.07 7.6,-15.62 6.22,-25.46 -4.31,-11.18 -2.42,-25.17 6.07,-36.52 11.17,-14.91 33.07,-22.35 48.93,-10.13 4.64,3.38 7.87,7.69 9.85,12.46 -2.02,-0.19 -4.05,-0.1 -6.04,0.27 -4.79,-9.88 -15.37,-15.09 -27.54,-12.5 -8.23,1.75 -15.45,6.78 -20.45,13.46 -5.01,6.69 -7.81,15.03 -7.17,23.41 1.21,16.04 14.46,25.96 30.19,22.61 6.13,-1.3 11.7,-4.42 16.21,-8.7 1.72,1.27 3.56,2.24 5.47,2.93zm-51.38 0.15c-0.41,6.41 -2.35,13.97 -6.52,20.9l1.56 1.17c5.47,-5.95 12.19,-9.94 18.22,-12.14 -5.09,-1.94 -9.96,-5.59 -13.26,-9.93zm19.77 3.38l0.01 0.1c0.02,0.14 -0.07,0.26 -0.2,0.28l-1.3 0.18c-0.13,0.02 -0.26,-0.07 -0.27,-0.2l-0.02 -0.1c-0.02,-0.14 0.07,-0.26 0.21,-0.28l1.3 -0.18c0.13,-0.02 0.25,0.07 0.27,0.2zm-1.39 -1.04l0.02 0.11c0.02,0.13 -0.07,0.25 -0.21,0.27l-1.3 0.19c-0.13,0.02 -0.25,-0.08 -0.27,-0.21l-0.01 -0.1c-0.02,-0.13 0.07,-0.26 0.2,-0.27l1.3 -0.19c0.13,-0.02 0.25,0.07 0.27,0.2zm-1.38 -1.03l0.01 0.1c0.02,0.13 -0.07,0.25 -0.2,0.27l-1.3 0.19c-0.13,0.02 -0.26,-0.07 -0.27,-0.21l-0.02 -0.1c-0.02,-0.13 0.07,-0.25 0.21,-0.27l1.3 -0.19c0.13,-0.02 0.25,0.07 0.27,0.21zm-1.39 -1.04l0.02 0.1c0.02,0.13 -0.07,0.26 -0.21,0.27l-1.3 0.19c-0.13,0.02 -0.25,-0.07 -0.27,-0.2l-0.01 -0.11c-0.02,-0.13 0.07,-0.25 0.2,-0.27l1.3 -0.19c0.13,-0.01 0.25,0.08 0.27,0.21zm-1.38 -1.04l0.01 0.1c0.02,0.14 -0.07,0.26 -0.2,0.28l-1.3 0.18c-0.13,0.02 -0.26,-0.07 -0.27,-0.2l-0.02 -0.1c-0.02,-0.14 0.07,-0.26 0.21,-0.28l1.29 -0.18c0.14,-0.02 0.26,0.07 0.28,0.2zm-1.39 -1.04l0.02 0.11c0.02,0.13 -0.07,0.25 -0.21,0.27l-0.56 0.08c-0.03,0.08 -0.1,0.14 -0.19,0.15l-0.1 0.01c-0.09,0.02 -0.17,-0.02 -0.22,-0.09l-0.23 0.04c-0.13,0.02 -0.25,-0.08 -0.27,-0.21l-0.01 -0.1c-0.02,-0.13 0.07,-0.25 0.2,-0.27l0.19 -0.03 -0.09 -0.65c-0.03,0.01 -0.07,0.03 -0.1,0.03l-1.3 0.19c-0.13,0.02 -0.26,-0.07 -0.27,-0.21l-0.02 -0.1c-0.02,-0.13 0.07,-0.25 0.21,-0.27l1.29 -0.19c0.11,-0.01 0.21,0.04 0.25,0.13 0.04,-0.02 0.07,-0.04 0.12,-0.04l0.1 -0.02c0.13,-0.02 0.25,0.07 0.27,0.21l0.12 0.84 0.53 -0.08c0.13,-0.02 0.25,0.07 0.27,0.2zm-2.77 -2.07l0.02 0.1c0.02,0.13 -0.07,0.26 -0.21,0.28l-1.3 0.18c-0.13,0.02 -0.25,-0.07 -0.27,-0.2l-0.01 -0.11c-0.02,-0.13 0.07,-0.25 0.2,-0.27l1.3 -0.18c0.13,-0.02 0.25,0.07 0.27,0.2zm-1.38 -1.04l0.01 0.1c0.02,0.14 -0.07,0.26 -0.2,0.28l-1.3 0.18c-0.13,0.02 -0.26,-0.07 -0.27,-0.2l-0.02 -0.1c-0.02,-0.13 0.07,-0.26 0.21,-0.28l1.29 -0.18c0.14,-0.02 0.26,0.07 0.28,0.2zm-1.39 -1.03l0.02 0.1c0.02,0.13 -0.07,0.25 -0.21,0.27l-1.3 0.19c-0.13,0.02 -0.25,-0.08 -0.27,-0.21l-0.01 -0.1c-0.02,-0.13 0.07,-0.25 0.2,-0.27l1.3 -0.19c0.13,-0.02 0.25,0.07 0.27,0.21zm-1.38 -1.04l0.01 0.1c0.02,0.13 -0.07,0.25 -0.2,0.27l-1.3 0.19c-0.13,0.02 -0.26,-0.07 -0.27,-0.21l-0.02 -0.1c-0.02,-0.13 0.07,-0.25 0.21,-0.27l1.29 -0.19c0.14,-0.02 0.26,0.08 0.28,0.21zm40.53 -31.18l0.02 0.1c0,0.05 0,0.09 -0.02,0.13l-0.21 0.15 -1.28 0.18c-0.13,0.02 -0.25,-0.07 -0.27,-0.2l-0.02 -0.11c-0.02,-0.13 0.08,-0.25 0.21,-0.27l1.3 -0.19c0.13,-0.01 0.25,0.08 0.27,0.21zm-1.38 -1.04l0.01 0.1c0.02,0.14 -0.07,0.26 -0.2,0.28l-1.3 0.18c-0.14,0.02 -0.26,-0.07 -0.28,-0.2l-0.01 -0.1c-0.02,-0.13 0.07,-0.26 0.2,-0.28l1.3 -0.18c0.13,-0.02 0.26,0.07 0.28,0.2zm-1.39 -1.03l0.02 0.1c0.01,0.13 -0.08,0.25 -0.21,0.27l-1.3 0.19c-0.13,0.02 -0.25,-0.08 -0.27,-0.21l-0.02 -0.1c-0.02,-0.13 0.08,-0.25 0.21,-0.27l1.3 -0.19c0.13,-0.02 0.25,0.07 0.27,0.21zm-1.38 -1.04l0.01 0.1c0.02,0.13 -0.07,0.25 -0.2,0.27l-1.03 0.15 0.07 0.5c0.02,0.14 -0.07,0.26 -0.2,0.28l-0.1 0.01c-0.14,0.02 -0.26,-0.07 -0.28,-0.2l-0.18 -1.3c-0.02,-0.13 0.07,-0.26 0.2,-0.28l0.1 -0.01c0.14,-0.02 0.26,0.07 0.28,0.2l0.03 0.22 0.67 -0.1c-0.03,-0.03 -0.05,-0.07 -0.06,-0.12l-0.19 -1.3c-0.01,-0.13 0.08,-0.25 0.21,-0.27l0.1 -0.02c0.13,-0.01 0.25,0.08 0.27,0.21l0.19 1.3c0.01,0.06 -0.01,0.12 -0.04,0.17 0.08,0.03 0.13,0.1 0.15,0.19zm-1.39 -1.04l0.02 0.1c0.01,0.13 -0.08,0.26 -0.21,0.28l-1.3 0.18c-0.13,0.02 -0.25,-0.07 -0.27,-0.2l-0.02 -0.1c-0.02,-0.14 0.08,-0.26 0.21,-0.28l1.3 -0.18c0.13,-0.02 0.25,0.07 0.27,0.2zm-1.38 -1.04l0.01 0.11c0.02,0.13 -0.07,0.25 -0.2,0.27l-1.3 0.18c-0.14,0.02 -0.26,-0.07 -0.28,-0.2l-0.01 -0.1c-0.02,-0.13 0.07,-0.26 0.2,-0.28l1.3 -0.18c0.13,-0.02 0.26,0.07 0.28,0.2zm-1.39 -1.03l0.02 0.1c0.01,0.13 -0.08,0.25 -0.21,0.27l-1.3 0.19c-0.13,0.02 -0.25,-0.08 -0.27,-0.21l-0.02 -0.1c-0.02,-0.13 0.08,-0.25 0.21,-0.27l1.3 -0.19c0.13,-0.02 0.25,0.07 0.27,0.21zm-1.38 -1.04l0.01 0.1c0.02,0.13 -0.07,0.25 -0.2,0.27l-1.3 0.19c-0.14,0.02 -0.26,-0.07 -0.28,-0.2l-0.01 -0.11c-0.02,-0.13 0.07,-0.25 0.2,-0.27l1.3 -0.19c0.13,-0.02 0.26,0.08 0.28,0.21zm-1.39 -1.04l0.02 0.1c0.01,0.14 -0.08,0.26 -0.21,0.28l-1.3 0.18c-0.13,0.02 -0.25,-0.07 -0.27,-0.2l-0.02 -0.1c-0.02,-0.14 0.08,-0.26 0.21,-0.28l1.3 -0.18c0.13,-0.02 0.25,0.07 0.27,0.2zm-1.37 -0.89c0,0.11 -0.09,0.21 -0.2,0.23l-0.98 0.14 0.13 0.92c0.02,0.13 -0.07,0.25 -0.2,0.27l-0.11 0.02c-0.13,0.01 -0.25,-0.08 -0.27,-0.21l-0.19 -1.3c-0.01,-0.13 0.08,-0.25 0.21,-0.27l0.1 -0.02c0.05,0 0.1,0 0.14,0.02l0.84 -0.12 -0.16 -1.11c-0.02,-0.13 0.07,-0.25 0.2,-0.27l0.1 -0.02c0.14,-0.01 0.26,0.08 0.28,0.21l0.18 1.3c0.01,0.08 -0.01,0.15 -0.07,0.21zm-1.4 -1.18l0.02 0.1c0.01,0.13 -0.08,0.25 -0.21,0.27l-1.3 0.19c-0.13,0.02 -0.25,-0.07 -0.27,-0.21l-0.02 -0.1c-0.02,-0.13 0.08,-0.25 0.21,-0.27l1.3 -0.19c0.13,-0.02 0.25,0.07 0.27,0.21zm-1.38 -1.04l0.01 0.1c0.02,0.13 -0.07,0.26 -0.2,0.27l-1.3 0.19c-0.14,0.02 -0.26,-0.07 -0.28,-0.2l-0.01 -0.11c-0.02,-0.13 0.07,-0.25 0.2,-0.27l1.3 -0.19c0.13,-0.02 0.26,0.08 0.28,0.21zm-1.39 -1.04l0.02 0.1c0.01,0.14 -0.08,0.26 -0.21,0.28l-1.3 0.18c-0.13,0.02 -0.25,-0.07 -0.27,-0.2l-0.02 -0.1c-0.02,-0.14 0.08,-0.26 0.21,-0.28l1.3 -0.18c0.13,-0.02 0.25,0.07 0.27,0.2zm-1.38 -1.04l0.01 0.11c0.02,0.13 -0.07,0.25 -0.21,0.27l-1.29 0.19c-0.14,0.02 -0.26,-0.08 -0.28,-0.21l-0.01 -0.1c-0.02,-0.13 0.07,-0.26 0.2,-0.28l1.3 -0.18c0.13,-0.02 0.26,0.07 0.28,0.2zm11 21.8l-0.74 0.1c-0.13,0.02 -0.26,-0.07 -0.28,-0.2l-0.01 -0.1c-0.02,-0.14 0.07,-0.26 0.2,-0.28l1.16 -0.16c-0.11,0.21 -0.23,0.42 -0.33,0.64zm-0.64 -1.5l0.02 0.11c0.02,0.13 -0.08,0.25 -0.21,0.27l-1.3 0.19c-0.13,0.01 -0.25,-0.08 -0.27,-0.21l-0.02 -0.1c-0.01,-0.13 0.08,-0.26 0.21,-0.28l1.3 -0.18c0.13,-0.02 0.25,0.07 0.27,0.2zm-1.38 -1.03l0.01 0.1c0.02,0.13 -0.07,0.25 -0.2,0.27l-1.3 0.19c-0.13,0.02 -0.26,-0.08 -0.28,-0.21l-0.01 -0.1c-0.02,-0.13 0.07,-0.25 0.2,-0.27l1.3 -0.19c0.14,-0.02 0.26,0.07 0.28,0.21zm-1.39 -1.04l0.02 0.1c0.02,0.13 -0.08,0.25 -0.21,0.27l-1.06 0.16 0.14 0.95c0.02,0.14 -0.07,0.26 -0.21,0.28l-0.1 0.01c-0.13,0.02 -0.25,-0.07 -0.27,-0.2l-0.19 -1.3c-0.02,-0.13 0.08,-0.26 0.21,-0.28l0.09 -0.01 0 0 0.01 0 0.01 0 0 0 0.86 -0.13 -0.14 -0.97c-0.02,-0.13 0.07,-0.25 0.2,-0.27l0.11 -0.02c0.13,-0.01 0.25,0.08 0.27,0.21l0.15 1.03c0.06,0.03 0.1,0.09 0.11,0.17zm-1.38 -1.04l0.01 0.1c0.02,0.14 -0.07,0.26 -0.2,0.28l-1.3 0.18c-0.13,0.02 -0.26,-0.07 -0.28,-0.2l-0.01 -0.1c-0.02,-0.14 0.07,-0.26 0.2,-0.28l1.3 -0.18c0.14,-0.02 0.26,0.07 0.28,0.2zm-1.39 -1.04l0.02 0.11c0.02,0.13 -0.08,0.25 -0.21,0.27l-1.3 0.19c-0.13,0.01 -0.25,-0.08 -0.27,-0.21l-0.02 -0.1c-0.01,-0.13 0.08,-0.26 0.21,-0.28l1.3 -0.18c0.13,-0.02 0.25,0.07 0.27,0.2zm-1.38 -1.03l0.01 0.1c0.02,0.13 -0.07,0.25 -0.2,0.27l-1.3 0.19c-0.13,0.02 -0.26,-0.07 -0.28,-0.21l-0.01 -0.1c-0.02,-0.13 0.07,-0.25 0.2,-0.27l1.3 -0.19c0.14,-0.02 0.26,0.07 0.28,0.21zm-1.39 -1.04l0.02 0.1c0.02,0.13 -0.08,0.26 -0.21,0.27l-1.3 0.19c-0.13,0.02 -0.25,-0.07 -0.27,-0.2l-0.02 -0.11c-0.01,-0.13 0.08,-0.25 0.21,-0.27l1.3 -0.19c0.13,-0.01 0.25,0.08 0.27,0.21zm-1.38 -1.04l0.01 0.1c0.02,0.14 -0.07,0.26 -0.2,0.28l-1.3 0.18c-0.14,0.02 -0.26,-0.07 -0.28,-0.2l-0.01 -0.1c-0.02,-0.14 0.07,-0.26 0.2,-0.28l1.3 -0.18c0.14,-0.02 0.26,0.07 0.28,0.2zm-1.39 -1.04l0.02 0.11c0.01,0.09 -0.03,0.18 -0.11,0.23l0.04 0.28c0.02,0.14 -0.07,0.26 -0.2,0.28l-0.11 0.01c-0.13,0.02 -0.25,-0.07 -0.27,-0.2l-0.04 -0.26 -0.7 0.1c0.05,0.04 0.09,0.09 0.1,0.16l0.18 1.3c0.02,0.13 -0.07,0.25 -0.2,0.27l-0.1 0.02c-0.14,0.02 -0.26,-0.07 -0.28,-0.21l-0.18 -1.3c-0.02,-0.12 0.06,-0.24 0.19,-0.27 -0.06,-0.03 -0.09,-0.09 -0.1,-0.16l-0.02 -0.1c-0.01,-0.13 0.08,-0.26 0.21,-0.27l0.82 -0.12 -0.07 -0.46c-0.02,-0.13 0.08,-0.26 0.21,-0.27l0.1 -0.02c0.13,-0.02 0.25,0.07 0.27,0.21l0.07 0.48c0.09,0.03 0.16,0.1 0.17,0.19zm-1.38 -1.03l0.01 0.1c0.02,0.13 -0.07,0.25 -0.2,0.27l-1.3 0.19c-0.14,0.02 -0.26,-0.07 -0.28,-0.21l-0.01 -0.1c-0.02,-0.13 0.07,-0.25 0.2,-0.27l1.3 -0.19c0.13,-0.02 0.26,0.07 0.28,0.21zm-1.39 -1.04l0.02 0.1c0.02,0.13 -0.08,0.26 -0.21,0.27l-1.3 0.19c-0.13,0.02 -0.25,-0.07 -0.27,-0.2l-0.02 -0.11c-0.02,-0.13 0.08,-0.25 0.21,-0.27l1.3 -0.19c0.13,-0.01 0.25,0.08 0.27,0.21zm-1.38 -1.04l0.01 0.1c0.02,0.14 -0.07,0.26 -0.2,0.28l-1.3 0.18c-0.14,0.02 -0.26,-0.07 -0.28,-0.2l-0.01 -0.1c-0.02,-0.14 0.07,-0.26 0.2,-0.28l1.3 -0.18c0.13,-0.02 0.26,0.07 0.28,0.2zm-1.39 -1.04l0.02 0.11c0.01,0.13 -0.08,0.25 -0.21,0.27l-1.3 0.19c-0.13,0.02 -0.25,-0.08 -0.27,-0.21l-0.02 -0.1c-0.02,-0.13 0.08,-0.25 0.21,-0.27l1.3 -0.19c0.13,-0.02 0.25,0.07 0.27,0.2zm-1.38 -1.03l0.01 0.1c0.02,0.13 -0.07,0.25 -0.2,0.27l-0.77 0.11 0.01 0.12c0.02,0.13 -0.07,0.25 -0.2,0.27l-0.1 0.02c-0.13,0.02 -0.26,-0.08 -0.28,-0.21l-0.01 -0.12c-0.12,-0.01 -0.21,-0.09 -0.23,-0.21l-0.01 -0.1c-0.02,-0.11 0.05,-0.22 0.15,-0.26l-0.08 -0.61 -0.01 -0.02 -1.16 0.16c-0.13,0.02 -0.25,-0.07 -0.27,-0.2l-0.02 -0.11c-0.02,-0.13 0.08,-0.25 0.21,-0.27l1.3 -0.19c0.13,-0.01 0.25,0.08 0.27,0.21l0.02 0.1 0 0.03c0.12,0 0.22,0.09 0.24,0.21l0.08 0.6 0.77 -0.11c0.13,-0.02 0.26,0.08 0.28,0.21zm-2.77 -2.08l0.01 0.1c0.02,0.14 -0.07,0.26 -0.2,0.28l-1.3 0.18c-0.14,0.02 -0.26,-0.07 -0.28,-0.2l-0.01 -0.1c-0.02,-0.13 0.07,-0.26 0.2,-0.28l1.3 -0.18c0.13,-0.02 0.26,0.07 0.28,0.2zm24.41 43.23l0.01 0.1c0.02,0.13 -0.07,0.25 -0.21,0.27l-1.29 0.19c-0.14,0.02 -0.26,-0.08 -0.28,-0.21l-0.01 -0.1c-0.02,-0.13 0.07,-0.25 0.2,-0.27l1.3 -0.19c0.13,-0.02 0.26,0.07 0.28,0.21zm-1.5 -1.13l0.01 0.11c0.02,0.13 -0.07,0.25 -0.2,0.27l-1.3 0.19c-0.04,0 -0.08,0 -0.11,-0.01l0.09 0.62c0.02,0.14 -0.08,0.26 -0.21,0.28l-0.1 0.01c-0.13,0.02 -0.25,-0.07 -0.27,-0.2l-0.19 -1.3c-0.02,-0.13 0.07,-0.26 0.21,-0.28l0.1 -0.01c0.13,-0.02 0.25,0.07 0.27,0.2l0.02 0.15c0.03,-0.02 0.07,-0.04 0.11,-0.05l0.52 -0.07 -0.01 -0.03 -0.18 -1.3c-0.02,-0.13 0.07,-0.25 0.2,-0.27l0.11 -0.02c0.13,-0.01 0.25,0.08 0.27,0.21l0.18 1.3 0.01 0.03 0.19 -0.03c0.14,-0.02 0.26,0.07 0.28,0.2zm-1.39 -1.03l0.02 0.1c0.02,0.13 -0.08,0.25 -0.21,0.27l-1.3 0.19c-0.13,0.02 -0.25,-0.07 -0.27,-0.21l-0.01 -0.1c-0.02,-0.13 0.07,-0.25 0.2,-0.27l1.3 -0.19c0.13,-0.02 0.25,0.07 0.27,0.21zm-1.38 -1.04l0.01 0.1c0.02,0.13 -0.07,0.26 -0.2,0.27l-1.3 0.19c-0.13,0.02 -0.26,-0.07 -0.28,-0.2l-0.01 -0.11c-0.02,-0.13 0.07,-0.25 0.21,-0.27l1.29 -0.19c0.14,-0.01 0.26,0.08 0.28,0.21zm-1.39 -1.04l0.02 0.1c0.02,0.14 -0.08,0.26 -0.21,0.28l-1.3 0.18c-0.13,0.02 -0.25,-0.07 -0.27,-0.2l-0.02 -0.1c-0.01,-0.14 0.08,-0.26 0.21,-0.28l1.3 -0.18c0.13,-0.02 0.25,0.07 0.27,0.2zm-1.38 -1.04l0.01 0.11c0.02,0.13 -0.07,0.25 -0.2,0.27l-1.3 0.19c-0.13,0.02 -0.26,-0.08 -0.28,-0.21l-0.01 -0.1c-0.02,-0.13 0.07,-0.26 0.2,-0.27l1.3 -0.19c0.14,-0.02 0.26,0.07 0.28,0.2zm-1.39 -1.03l0.02 0.1c0.02,0.13 -0.08,0.25 -0.21,0.27l-1.3 0.19c-0.12,0.02 -0.23,-0.06 -0.26,-0.17 -0.01,0.11 -0.09,0.21 -0.21,0.23l-0.1 0.01c-0.13,0.02 -0.26,-0.07 -0.28,-0.2l-0.13 -0.97 -0.4 0.06c-0.13,0.02 -0.26,-0.07 -0.28,-0.2l-0.01 -0.11c-0.02,-0.13 0.07,-0.25 0.2,-0.27l1.3 -0.19c0.14,-0.01 0.26,0.08 0.28,0.21l0.01 0.1c0.02,0.13 -0.07,0.26 -0.2,0.27l-0.32 0.05 0.11 0.81c0.01,-0.11 0.1,-0.2 0.21,-0.21l1.3 -0.19c0.13,-0.02 0.25,0.07 0.27,0.21zm-2.77 -2.08l0.02 0.1c0.02,0.14 -0.08,0.26 -0.21,0.28l-1.3 0.18c-0.13,0.02 -0.25,-0.07 -0.27,-0.2l-0.02 -0.1c-0.01,-0.14 0.08,-0.26 0.21,-0.28l1.3 -0.18c0.13,-0.02 0.25,0.07 0.27,0.2zm-1.38 -1.04l0.01 0.11c0.02,0.13 -0.07,0.25 -0.2,0.27l-1.3 0.19c-0.13,0.02 -0.26,-0.08 -0.28,-0.21l-0.01 -0.1c-0.02,-0.13 0.07,-0.25 0.2,-0.27l1.3 -0.19c0.14,-0.02 0.26,0.07 0.28,0.2zm-1.39 -1.03l0.02 0.1c0.02,0.13 -0.08,0.25 -0.21,0.27l-1.3 0.19c-0.13,0.02 -0.25,-0.07 -0.27,-0.21l-0.02 -0.1c-0.01,-0.13 0.08,-0.25 0.21,-0.27l1.3 -0.19c0.13,-0.02 0.25,0.08 0.27,0.21zm-1.38 -1.04l0.01 0.1c0.02,0.13 -0.07,0.26 -0.2,0.28l-1.3 0.18c-0.13,0.02 -0.26,-0.07 -0.28,-0.2l-0.01 -0.11c-0.02,-0.13 0.07,-0.25 0.2,-0.27l1.3 -0.18c0.14,-0.02 0.26,0.07 0.28,0.2zm-1.39 -1.04l0.02 0.1c0.02,0.14 -0.08,0.26 -0.21,0.28l-1.3 0.18c-0.13,0.02 -0.25,-0.07 -0.27,-0.2l-0.02 -0.1c-0.01,-0.13 0.08,-0.26 0.21,-0.28l1.3 -0.18c0.13,-0.02 0.25,0.07 0.27,0.2zm-1.38 -1.03l0.01 0.1c0.02,0.13 -0.07,0.25 -0.2,0.27l-0.63 0.09 0.01 0.09c0.02,0.13 -0.07,0.25 -0.21,0.27l-0.1 0.02c-0.13,0.02 -0.25,-0.08 -0.27,-0.21l-0.01 -0.09 -0.09 0.02c-0.13,0.02 -0.26,-0.08 -0.28,-0.21l-0.01 -0.1c-0.02,-0.13 0.07,-0.25 0.2,-0.27l0.09 -0.02 -0.09 -0.63 -1.3 0.19c-0.13,0.02 -0.25,-0.07 -0.27,-0.21l-0.02 -0.1c-0.01,-0.13 0.08,-0.25 0.21,-0.27l1.3 -0.19c0.13,-0.02 0.25,0.08 0.27,0.21l0.02 0.1 0.1 -0.01c0.13,-0.02 0.25,0.07 0.27,0.2l0.09 0.63 0.63 -0.09c0.14,-0.02 0.26,0.07 0.28,0.21zm-2.77 -2.08l0.01 0.1c0.02,0.13 -0.07,0.26 -0.2,0.28l-1.3 0.18c-0.13,0.02 -0.26,-0.07 -0.28,-0.2l-0.01 -0.1c-0.02,-0.14 0.07,-0.26 0.2,-0.28l1.3 -0.18c0.14,-0.02 0.26,0.07 0.28,0.2zm-1.39 -1.04l0.02 0.11c0.02,0.13 -0.08,0.25 -0.21,0.27l-1.3 0.19c-0.13,0.01 -0.25,-0.08 -0.27,-0.21l-0.02 -0.1c-0.01,-0.13 0.08,-0.26 0.21,-0.28l1.3 -0.18c0.13,-0.02 0.25,0.07 0.27,0.2zm-1.38 -1.03l0.01 0.1c0.02,0.13 -0.07,0.25 -0.2,0.27l-1.3 0.19c-0.13,0.02 -0.26,-0.07 -0.28,-0.21l-0.01 -0.1c-0.02,-0.13 0.07,-0.25 0.2,-0.27l1.3 -0.19c0.14,-0.02 0.26,0.07 0.28,0.21zm-1.39 -1.04l0.02 0.1c0.02,0.13 -0.08,0.26 -0.21,0.27l-1.3 0.19c-0.13,0.02 -0.25,-0.07 -0.27,-0.2l-0.02 -0.11c-0.01,-0.13 0.08,-0.25 0.21,-0.27l1.3 -0.19c0.13,-0.02 0.25,0.08 0.27,0.21zm-1.38 -1.04l0.01 0.1c0.02,0.14 -0.07,0.26 -0.2,0.28l-0.68 0.09 0.08 0.61c0.02,0.13 -0.07,0.25 -0.2,0.27l-0.11 0.01c-0.13,0.02 -0.25,-0.07 -0.27,-0.2l-0.08 -0.6 -0.04 0c-0.13,0.02 -0.26,-0.07 -0.28,-0.2l-0.01 -0.1c-0.02,-0.14 0.07,-0.26 0.2,-0.28l0.04 0 -0.02 -0.12c-0.01,-0.13 0.08,-0.26 0.21,-0.27l0.1 -0.02c0.13,-0.02 0.26,0.07 0.27,0.21l0.02 0.11 0.63 -0.09 0 -0.03 -0.19 -1.3c-0.02,-0.13 0.07,-0.25 0.21,-0.27l0.1 -0.01c0.13,-0.02 0.25,0.07 0.27,0.2l0.19 1.3c0.02,0.13 -0.07,0.26 -0.21,0.27l-0.05 0.01 0.01 0.03zm-1.39 -1.04l0.02 0.11c0.02,0.13 -0.08,0.25 -0.21,0.27l-1.3 0.19c-0.13,0.02 -0.25,-0.08 -0.27,-0.21l-0.02 -0.1c-0.01,-0.13 0.08,-0.26 0.21,-0.27l1.3 -0.19c0.13,-0.02 0.25,0.07 0.27,0.2zm-1.38 -1.03l0.01 0.1c0.02,0.13 -0.07,0.25 -0.2,0.27l-1.3 0.19c-0.13,0.02 -0.26,-0.07 -0.28,-0.21l-0.01 -0.1c-0.02,-0.13 0.07,-0.25 0.2,-0.27l1.3 -0.19c0.13,-0.02 0.26,0.07 0.28,0.21zm-1.39 -1.04l0.02 0.1c0.02,0.13 -0.08,0.26 -0.21,0.27l-1.3 0.19c-0.13,0.02 -0.25,-0.07 -0.27,-0.2l-0.02 -0.11c-0.01,-0.13 0.08,-0.25 0.21,-0.27l1.3 -0.19c0.13,-0.01 0.25,0.08 0.27,0.21zm-1.38 -1.04l0.01 0.1c0.02,0.14 -0.07,0.26 -0.2,0.28l-1.3 0.18c-0.13,0.02 -0.26,-0.07 -0.28,-0.2l-0.01 -0.1c-0.02,-0.14 0.07,-0.26 0.2,-0.28l1.3 -0.18c0.13,-0.02 0.26,0.07 0.28,0.2zm-1.39 -1.04l0.02 0.11c0.02,0.13 -0.08,0.25 -0.21,0.27l-1.3 0.19c-0.13,0.02 -0.25,-0.08 -0.27,-0.21l-0.02 -0.1c-0.01,-0.13 0.08,-0.26 0.21,-0.27l0.45 -0.07c-0.05,-0.04 -0.09,-0.09 -0.1,-0.16l-0.18 -1.3c-0.02,-0.13 0.07,-0.26 0.2,-0.27l0.1 -0.02c0.13,-0.02 0.26,0.07 0.28,0.21l0.18 1.29c0.01,0.07 -0.01,0.14 -0.05,0.19l0.42 -0.06c0.13,-0.02 0.25,0.07 0.27,0.2zm-1.38 -1.03l0.01 0.1c0.02,0.13 -0.07,0.25 -0.2,0.27l-1.3 0.19c-0.13,0.02 -0.26,-0.07 -0.28,-0.21l-0.01 -0.1c-0.02,-0.13 0.07,-0.25 0.2,-0.27l1.3 -0.19c0.13,-0.02 0.26,0.08 0.28,0.21zm-1.39 -1.04l0.02 0.1c0.01,0.13 -0.08,0.26 -0.21,0.28l-1.3 0.18c-0.13,0.02 -0.25,-0.07 -0.27,-0.2l-0.02 -0.11c-0.02,-0.13 0.08,-0.25 0.21,-0.27l1.3 -0.19c0.13,-0.01 0.25,0.08 0.27,0.21zm34.63 22.85l0.1 -0.01c0.04,-0.01 0.08,0 0.11,0.01l0.17 0.24 0.18 1.25c0.02,0.14 -0.07,0.26 -0.2,0.28l-0.1 0.01c-0.14,0.02 -0.26,-0.07 -0.28,-0.2l-0.18 -1.3c-0.02,-0.13 0.07,-0.26 0.2,-0.28zm-3.11 4.16l0.1 -0.02c0.13,-0.01 0.25,0.08 0.27,0.21l0.19 1.3c0.02,0.13 -0.07,0.25 -0.2,0.27l-0.11 0.02c-0.13,0.02 -0.25,-0.08 -0.27,-0.21l-0.19 -1.3c-0.02,-0.13 0.08,-0.25 0.21,-0.27zm-1.04 1.38l0.1 -0.01c0.14,-0.02 0.26,0.07 0.28,0.2l0.18 1.3c0.02,0.14 -0.07,0.26 -0.2,0.28l-0.1 0.01c-0.14,0.02 -0.26,-0.07 -0.28,-0.2l-0.18 -1.3c-0.02,-0.13 0.07,-0.26 0.2,-0.28zm-1.04 1.39l0.11 -0.02c0.13,-0.01 0.25,0.08 0.27,0.21l0.19 1.3c0.01,0.13 -0.08,0.25 -0.21,0.27l-0.1 0.02c-0.13,0.02 -0.26,-0.08 -0.28,-0.21l-0.18 -1.3c-0.02,-0.13 0.07,-0.25 0.2,-0.27zm-1.03 1.38l0.1 -0.01c0.13,-0.02 0.25,0.07 0.27,0.2l0.19 1.3c0.02,0.14 -0.07,0.26 -0.21,0.28l-0.1 0.01c-0.13,0.02 -0.25,-0.07 -0.27,-0.2l-0.19 -1.3c-0.02,-0.13 0.07,-0.26 0.21,-0.28zm-1.04 1.39l0.1 -0.02c0.13,-0.01 0.26,0.08 0.27,0.21l0.19 1.3c0.02,0.13 -0.07,0.25 -0.2,0.27l-0.11 0.02c-0.13,0.02 -0.25,-0.08 -0.27,-0.21l-0.19 -1.3c-0.01,-0.13 0.08,-0.25 0.21,-0.27zm3.2 -19.87l0.1 -0.02c0.13,-0.01 0.26,0.08 0.28,0.21l0.18 1.3c0.02,0.13 -0.07,0.25 -0.2,0.27l-0.1 0.02c-0.14,0.02 -0.26,-0.08 -0.28,-0.21l-0.18 -1.3c-0.02,-0.13 0.07,-0.25 0.2,-0.27zm-1.04 1.38l0.11 -0.01c0.13,-0.02 0.25,0.07 0.27,0.2l0.18 1.3c0.02,0.14 -0.07,0.26 -0.2,0.28l-0.1 0.01c-0.13,0.02 -0.26,-0.07 -0.28,-0.2l-0.18 -1.3c-0.02,-0.13 0.07,-0.26 0.2,-0.28zm-1.03 1.39l0.1 -0.02c0.13,-0.01 0.25,0.08 0.27,0.21l0.19 1.3c0.02,0.13 -0.07,0.25 -0.21,0.27l-0.1 0.02c-0.13,0.02 -0.25,-0.08 -0.27,-0.21l-0.19 -1.3c-0.02,-0.13 0.07,-0.25 0.21,-0.27zm-1.04 1.38l0.1 -0.01c0.13,-0.02 0.26,0.07 0.27,0.2l0.19 1.3c0.02,0.14 -0.07,0.26 -0.2,0.28l-0.11 0.01c-0.13,0.02 -0.25,-0.07 -0.27,-0.2l-0.19 -1.3c-0.02,-0.13 0.08,-0.26 0.21,-0.28zm-1.04 1.39l0.1 -0.02c0.13,-0.01 0.26,0.08 0.28,0.21l0.18 1.3c0.02,0.13 -0.07,0.25 -0.2,0.27l-0.1 0.02c-0.14,0.02 -0.26,-0.08 -0.28,-0.21l-0.18 -1.3c-0.02,-0.13 0.07,-0.25 0.2,-0.27zm-2.07 2.77l0.1 -0.02c0.13,-0.01 0.25,0.08 0.27,0.21l0.19 1.3c0.02,0.13 -0.07,0.25 -0.21,0.27l-0.1 0.02c-0.13,0.02 -0.25,-0.08 -0.27,-0.21l-0.19 -1.3c-0.02,-0.13 0.07,-0.25 0.21,-0.27zm-1.04 1.38l0.1 -0.01c0.13,-0.02 0.26,0.07 0.27,0.2l0.19 1.3c0.02,0.14 -0.07,0.26 -0.2,0.28l-0.11 0.01c-0.13,0.02 -0.25,-0.07 -0.27,-0.2l-0.19 -1.3c-0.01,-0.13 0.08,-0.26 0.21,-0.28zm-1.04 1.39l0.1 -0.02c0.14,-0.01 0.26,0.08 0.28,0.21l0.18 1.3c0.02,0.13 -0.07,0.25 -0.2,0.27l-0.1 0.02c-0.14,0.02 -0.26,-0.08 -0.28,-0.21l-0.18 -1.3c-0.02,-0.13 0.07,-0.25 0.2,-0.27zm-1.04 1.38l0.11 -0.01c0.13,-0.02 0.25,0.07 0.27,0.2l0.19 1.3c0.02,0.14 -0.08,0.26 -0.21,0.28l-0.1 0.01c-0.13,0.02 -0.26,-0.07 -0.27,-0.2l-0.19 -1.3c-0.02,-0.13 0.07,-0.26 0.2,-0.28zm-1.03 1.39l0.1 -0.02c0.13,-0.01 0.25,0.08 0.27,0.21l0.19 1.3c0.02,0.13 -0.07,0.25 -0.21,0.27l-0.1 0.02c-0.09,0.01 -0.18,-0.03 -0.23,-0.1 -0.03,0.03 -0.08,0.06 -0.13,0.07l-0.52 0.07 0.15 1.05c0.02,0.14 -0.07,0.26 -0.2,0.28l-0.11 0.01c-0.13,0.02 -0.25,-0.07 -0.27,-0.2l-0.15 -1.06 -0.2 0.03c-0.13,0.02 -0.26,-0.07 -0.28,-0.2l-0.01 -0.11c-0.02,-0.13 0.07,-0.25 0.21,-0.27l1.29 -0.19c0.05,0 0.09,0 0.12,0.02l-0.13 -0.91c-0.02,-0.13 0.08,-0.25 0.21,-0.27zm-2.08 2.77l0.1 -0.02c0.14,-0.01 0.26,0.08 0.28,0.21l0.18 1.3c0.02,0.13 -0.07,0.25 -0.2,0.27l-0.1 0.02c-0.13,0.02 -0.26,-0.08 -0.28,-0.21l-0.18 -1.3c-0.02,-0.13 0.07,-0.25 0.2,-0.27zm-1.03 1.38l0.1 -0.01c0.13,-0.02 0.25,0.07 0.27,0.21l0.19 1.29c0.02,0.14 -0.08,0.26 -0.21,0.28l-0.1 0.01c-0.13,0.02 -0.25,-0.07 -0.27,-0.2l-0.19 -1.3c-0.02,-0.13 0.07,-0.26 0.21,-0.28zm-1.04 1.39l0.1 -0.02c0.13,-0.01 0.25,0.08 0.27,0.21l0.19 1.3c0.02,0.13 -0.07,0.25 -0.21,0.27l-0.1 0.02c-0.13,0.02 -0.25,-0.08 -0.27,-0.21l-0.19 -1.3c-0.02,-0.13 0.08,-0.25 0.21,-0.27zm-1.04 1.38l0.1 -0.01c0.13,-0.02 0.26,0.07 0.28,0.21l0.18 1.29c0.02,0.14 -0.07,0.26 -0.2,0.28l-0.11 0.01c-0.13,0.02 -0.25,-0.07 -0.27,-0.2l-0.18 -1.3c-0.02,-0.13 0.07,-0.26 0.2,-0.28zm1.08 -52.59l0.11 -0.01c0.13,-0.02 0.25,0.07 0.27,0.21l0.19 1.29c0.02,0.14 -0.08,0.26 -0.21,0.28l-0.1 0.01c-0.13,0.02 -0.26,-0.07 -0.27,-0.2l-0.19 -1.3c-0.02,-0.13 0.07,-0.26 0.2,-0.28zm-1.03 1.39l0.1 -0.02c0.13,-0.01 0.25,0.08 0.27,0.21l0.19 1.3c0.02,0.13 -0.07,0.25 -0.21,0.27l-0.1 0.02c-0.13,0.02 -0.25,-0.08 -0.27,-0.21l-0.19 -1.3c-0.02,-0.13 0.07,-0.25 0.21,-0.27zm-1.04 1.38l0.1 -0.01c0.13,-0.02 0.26,0.07 0.27,0.21l0.19 1.29c0.02,0.14 -0.07,0.26 -0.2,0.28l-0.11 0.01c-0.13,0.02 -0.25,-0.07 -0.27,-0.2l-0.19 -1.3c-0.01,-0.13 0.08,-0.26 0.21,-0.28zm-2.08 2.77l0.11 -0.01c0.13,-0.02 0.25,0.07 0.27,0.21l0.19 1.29c0.02,0.14 -0.08,0.26 -0.21,0.28l-0.1 0.01c-0.13,0.02 -0.26,-0.07 -0.27,-0.2l-0.19 -1.3c-0.02,-0.13 0.07,-0.26 0.2,-0.28zm-1.03 1.39l0.1 -0.02c0.13,-0.01 0.25,0.08 0.27,0.21l0.19 1.3c0.02,0.13 -0.07,0.25 -0.21,0.27l-0.1 0.02c-0.13,0.02 -0.25,-0.08 -0.27,-0.21l-0.19 -1.3c-0.02,-0.13 0.08,-0.25 0.21,-0.27zm-1.04 1.38l0.1 -0.01c0.13,-0.02 0.26,0.07 0.28,0.21l0.18 1.29c0.02,0.14 -0.07,0.26 -0.2,0.28l-0.11 0.01c-0.13,0.02 -0.25,-0.07 -0.27,-0.2l-0.18 -1.3c-0.02,-0.13 0.07,-0.26 0.2,-0.28zm-1.04 1.39l0.1 -0.01c0.14,-0.02 0.26,0.07 0.28,0.2l0.18 1.3c0.02,0.13 -0.07,0.25 -0.2,0.27l-0.1 0.02c-0.13,0.02 -0.26,-0.07 -0.28,-0.21l-0.18 -1.3c-0.02,-0.13 0.07,-0.25 0.2,-0.27zm-1.03 1.38l0.1 -0.01c0.13,-0.02 0.25,0.07 0.27,0.21l0.19 1.29c0.02,0.14 -0.08,0.26 -0.21,0.28l0 0c-0.02,0.1 -0.1,0.18 -0.2,0.19l-0.75 0.11 0.12 0.81c0.02,0.13 -0.07,0.25 -0.21,0.27l-0.1 0.02c-0.13,0.02 -0.25,-0.07 -0.27,-0.21l-0.12 -0.81c-0.12,0.01 -0.23,-0.08 -0.25,-0.21l-0.01 -0.1c-0.02,-0.13 0.07,-0.25 0.2,-0.27 0.02,-0.09 0.1,-0.17 0.2,-0.18l0.1 -0.01c0.1,-0.02 0.19,0.03 0.24,0.11l0.65 -0.09 -0.16 -1.12c-0.02,-0.13 0.07,-0.26 0.21,-0.28zm-2.08 2.78l0.1 -0.02c0.13,-0.02 0.26,0.07 0.28,0.21l0.18 1.29c0.02,0.14 -0.07,0.26 -0.2,0.28l-0.1 0.01c-0.14,0.02 -0.26,-0.07 -0.28,-0.2l-0.18 -1.3c-0.02,-0.13 0.07,-0.26 0.2,-0.27zm-1.04 1.38l0.1 -0.01c0.14,-0.02 0.26,0.07 0.28,0.2l0.18 1.3c0.02,0.13 -0.07,0.25 -0.2,0.27l-0.1 0.02c-0.13,0.02 -0.26,-0.07 -0.28,-0.21l-0.18 -1.3c-0.02,-0.13 0.07,-0.25 0.2,-0.27zm-1.03 1.39l0.1 -0.02c0.13,-0.02 0.25,0.07 0.27,0.21l0.19 1.29c0.02,0.14 -0.08,0.26 -0.21,0.28l-0.1 0.01c-0.13,0.02 -0.25,-0.07 -0.27,-0.2l-0.19 -1.3c-0.02,-0.13 0.07,-0.26 0.21,-0.27zm-1.04 1.38l0.1 -0.01c0.13,-0.02 0.25,0.07 0.27,0.2l0.19 1.3c0.02,0.13 -0.07,0.25 -0.2,0.27l-0.11 0.02c-0.13,0.02 -0.25,-0.07 -0.27,-0.21l-0.19 -1.3c-0.02,-0.13 0.08,-0.25 0.21,-0.27zm-2.08 2.77l0.11 -0.01c0.13,-0.02 0.25,0.07 0.27,0.2l0.19 1.3c0.01,0.13 -0.08,0.25 -0.21,0.27l-0.1 0.02c-0.13,0.02 -0.26,-0.07 -0.28,-0.21l-0.18 -1.3c-0.02,-0.13 0.07,-0.25 0.2,-0.27zm-1.03 1.39l0.1 -0.02c0.13,-0.02 0.25,0.07 0.27,0.21l0.19 1.29c0.02,0.14 -0.07,0.26 -0.21,0.28l-0.1 0.01c-0.13,0.02 -0.25,-0.07 -0.27,-0.2l-0.19 -1.3c-0.02,-0.13 0.07,-0.26 0.21,-0.27zm-1.04 1.38l0.1 -0.01c0.13,-0.02 0.26,0.07 0.27,0.2l0.19 1.3c0.02,0.13 -0.07,0.25 -0.2,0.27l-0.11 0.02c-0.13,0.02 -0.25,-0.07 -0.27,-0.21l-0.19 -1.3c-0.02,-0.13 0.08,-0.25 0.21,-0.27zm-1.04 1.39l0.1 -0.02c0.14,-0.02 0.26,0.07 0.28,0.21l0.18 1.29c0.02,0.14 -0.07,0.26 -0.2,0.28l-0.1 0.01c-0.14,0.02 -0.26,-0.07 -0.28,-0.2l-0.18 -1.3c-0.02,-0.13 0.07,-0.26 0.2,-0.27zm-1.04 1.38l0.11 -0.01c0.13,-0.02 0.25,0.07 0.27,0.2l0.19 1.3c0.02,0.13 -0.08,0.25 -0.21,0.27l-0.1 0.02c-0.13,0.02 -0.26,-0.07 -0.27,-0.21l-0.19 -1.3c-0.02,-0.13 0.07,-0.25 0.2,-0.27zm-1.03 1.39l0.1 -0.02c0.13,-0.02 0.25,0.07 0.27,0.21l0.19 1.29c0.02,0.14 -0.07,0.26 -0.21,0.28l-0.1 0.01c-0.13,0.02 -0.25,-0.07 -0.27,-0.2l-0.19 -1.3c-0.02,-0.13 0.07,-0.26 0.21,-0.27zm34.08 -29.88l0.11 -0.01c0.13,-0.02 0.25,0.07 0.27,0.2l0.19 1.3c0.02,0.14 -0.08,0.26 -0.21,0.28l-0.1 0.01c-0.13,0.02 -0.25,-0.07 -0.27,-0.2l-0.19 -1.3c-0.02,-0.13 0.07,-0.26 0.2,-0.28zm-1.12 1.5l0.11 -0.01c0.13,-0.02 0.25,0.07 0.27,0.2l0.19 1.3c0.01,0.13 -0.08,0.26 -0.21,0.27l-0.1 0.02c-0.13,0.02 -0.26,-0.07 -0.28,-0.21l-0.18 -1.29c-0.02,-0.14 0.07,-0.26 0.2,-0.28zm-3.36 4.5l0.1 -0.02c0.13,-0.02 0.25,0.07 0.27,0.21l0.19 1.29c0.02,0.14 -0.07,0.26 -0.21,0.28l-0.1 0.01c-0.13,0.02 -0.25,-0.07 -0.27,-0.2l-0.19 -1.3c-0.02,-0.13 0.08,-0.26 0.21,-0.27zm-1.04 1.38l0.1 -0.01c0.13,-0.02 0.26,0.07 0.28,0.2l0.18 1.3c0.02,0.13 -0.07,0.25 -0.2,0.27l-0.1 0.02c-0.14,0.02 -0.26,-0.08 -0.28,-0.21l-0.18 -1.3c-0.02,-0.13 0.07,-0.25 0.2,-0.27zm-1.04 1.39l0.11 -0.02c0.13,-0.02 0.25,0.07 0.27,0.21l0.18 1.29c0.02,0.14 -0.07,0.26 -0.2,0.28l-0.1 0.01c-0.13,0.02 -0.26,-0.07 -0.28,-0.2l-0.18 -1.3c-0.02,-0.13 0.07,-0.26 0.2,-0.27zm-1.03 1.38l0.1 -0.01c0.13,-0.02 0.25,0.07 0.27,0.2l0.19 1.3c0.02,0.13 -0.08,0.25 -0.21,0.27l-0.1 0.02c-0.13,0.02 -0.25,-0.07 -0.27,-0.21l-0.19 -1.3c-0.02,-0.13 0.07,-0.25 0.21,-0.27zm-3.12 4.16l0.11 -0.02c0.13,-0.02 0.25,0.07 0.27,0.21l0.19 1.29c0.01,0.14 -0.08,0.26 -0.21,0.28l-0.1 0.01c-0.13,0.02 -0.26,-0.07 -0.28,-0.2l-0.18 -1.3c-0.02,-0.13 0.07,-0.26 0.2,-0.27zm-1.03 1.38l0.1 -0.01c0.13,-0.02 0.25,0.07 0.27,0.2l0.19 1.3c0.02,0.13 -0.08,0.26 -0.21,0.27l-0.1 0.02c-0.13,0.02 -0.25,-0.07 -0.27,-0.21l-0.19 -1.3c-0.02,-0.13 0.07,-0.25 0.21,-0.27zm-1.04 1.39l0.1 -0.02c0.13,-0.02 0.25,0.07 0.27,0.21l0.19 1.29c0.02,0.14 -0.07,0.26 -0.2,0.28l-0.11 0.01c-0.13,0.02 -0.25,-0.07 -0.27,-0.2l-0.19 -1.3c-0.02,-0.13 0.08,-0.26 0.21,-0.27zm-1.04 1.38l0.1 -0.01c0.14,-0.02 0.26,0.07 0.28,0.2l0.18 1.3c0.02,0.13 -0.07,0.26 -0.2,0.27l-0.1 0.02c-0.14,0.02 -0.26,-0.07 -0.28,-0.21l-0.18 -1.3c-0.02,-0.13 0.07,-0.25 0.2,-0.27zm-1.04 1.39l0.11 -0.02 0.04 0 0.07 -0.01c0.13,-0.02 0.25,0.07 0.27,0.2l0.02 0.11c0.01,0.08 -0.02,0.16 -0.09,0.21l0.1 0.67 1.08 -0.15c0.14,-0.02 0.26,0.07 0.28,0.2l0.01 0.1c0.02,0.14 -0.07,0.26 -0.2,0.28l-1.3 0.18c-0.03,0.01 -0.07,0 -0.1,0l-0.03 0c-0.13,0.02 -0.26,-0.07 -0.28,-0.2l-0.13 -0.96 -0.85 0.13c-0.13,0.01 -0.25,-0.08 -0.27,-0.21l-0.02 -0.1c-0.01,-0.13 0.08,-0.26 0.21,-0.28l1.04 -0.15 0.04 0zm-1.03 1.38l0.1 -0.01c0.13,-0.02 0.25,0.07 0.27,0.2l0.19 1.3c0.02,0.13 -0.07,0.26 -0.21,0.27l-0.1 0.02c-0.13,0.02 -0.25,-0.07 -0.27,-0.21l-0.19 -1.3c-0.02,-0.13 0.07,-0.25 0.21,-0.27zm-1.04 1.39l0.1 -0.02c0.13,-0.02 0.26,0.07 0.27,0.21l0.19 1.29c0.02,0.14 -0.07,0.26 -0.2,0.28l-0.11 0.01c-0.13,0.02 -0.25,-0.07 -0.27,-0.2l-0.19 -1.3c-0.01,-0.13 0.08,-0.26 0.21,-0.27zm-1.04 1.38l0.1 -0.01c0.14,-0.02 0.26,0.07 0.28,0.2l0.18 1.3c0.02,0.13 -0.07,0.26 -0.2,0.27l-0.1 0.02c-0.14,0.02 -0.26,-0.07 -0.28,-0.21l-0.18 -1.3c-0.02,-0.13 0.07,-0.25 0.2,-0.27zm-1.04 1.39l0.11 -0.02c0.13,-0.02 0.25,0.07 0.27,0.21l0.19 1.3c0.02,0.13 -0.08,0.25 -0.21,0.27l-0.1 0.01c-0.13,0.02 -0.25,-0.07 -0.27,-0.2l-0.19 -1.3c-0.02,-0.13 0.07,-0.26 0.2,-0.27zm-3.11 4.15l0.1 -0.01c0.14,-0.02 0.26,0.07 0.28,0.2l0.18 1.3c0.02,0.13 -0.07,0.26 -0.2,0.27l-0.1 0.02c-0.13,0.02 -0.26,-0.07 -0.28,-0.21l-0.18 -1.3c-0.02,-0.13 0.07,-0.25 0.2,-0.27zm-1.04 1.39l0.11 -0.02c0.13,-0.02 0.25,0.07 0.27,0.21l0.19 1.3c0.02,0.13 -0.08,0.25 -0.21,0.27l-0.1 0.01c-0.13,0.02 -0.25,-0.07 -0.27,-0.2l-0.19 -1.3c-0.02,-0.13 0.07,-0.25 0.2,-0.27zm-1.03 1.38l0.1 -0.01c0.13,-0.02 0.25,0.07 0.27,0.2l0.19 1.3c0.02,0.13 -0.07,0.26 -0.21,0.27l-0.1 0.02c-0.13,0.02 -0.25,-0.07 -0.27,-0.21l-0.19 -1.3c-0.02,-0.13 0.08,-0.25 0.21,-0.27zm-1.04 1.39l0.1 -0.02c0.13,-0.02 0.26,0.07 0.28,0.21l0.18 1.3c0.02,0.13 -0.07,0.25 -0.2,0.27l-0.11 0.01c-0.13,0.02 -0.25,-0.07 -0.27,-0.2l-0.18 -1.3c-0.02,-0.13 0.07,-0.25 0.2,-0.27zm-1.04 1.38l0.1 -0.01c0.14,-0.02 0.26,0.07 0.28,0.2l0.18 1.3c0.02,0.08 -0.01,0.15 -0.06,0.2l0.01 0.09c0.02,0.14 -0.07,0.26 -0.2,0.28l-0.88 0.12 0.1 0.7c0.02,0.13 -0.08,0.25 -0.21,0.27l-0.1 0.01c-0.13,0.02 -0.25,-0.07 -0.27,-0.2l-0.11 -0.76c-0.06,-0.03 -0.1,-0.09 -0.11,-0.16l-0.01 -0.1c-0.01,-0.07 0.01,-0.14 0.05,-0.19l-0.01 -0.09c-0.02,-0.13 0.07,-0.25 0.21,-0.27l0.1 -0.02c0.13,-0.02 0.25,0.07 0.27,0.21l0 0.02 0.63 -0.09 -0.17 -1.23c-0.02,-0.14 0.07,-0.26 0.2,-0.28zm-2.07 2.77l0.1 -0.01c0.13,-0.02 0.25,0.07 0.27,0.2l0.19 1.3c0.02,0.13 -0.07,0.26 -0.21,0.27l-0.1 0.02c-0.13,0.02 -0.25,-0.07 -0.27,-0.21l-0.19 -1.29c-0.02,-0.14 0.08,-0.26 0.21,-0.28zm-1.04 1.39l0.1 -0.02c0.13,-0.02 0.26,0.07 0.28,0.21l0.18 1.3c0.02,0.13 -0.07,0.25 -0.2,0.27l-0.1 0.01c-0.14,0.02 -0.26,-0.07 -0.28,-0.2l-0.18 -1.3c-0.02,-0.13 0.07,-0.25 0.2,-0.27zm-1.04 1.38l0.11 -0.01c0.13,-0.02 0.25,0.07 0.27,0.2l0.19 1.3c0.01,0.13 -0.08,0.26 -0.21,0.27l-0.1 0.02c-0.13,0.02 -0.26,-0.07 -0.28,-0.21l-0.18 -1.29c-0.02,-0.14 0.07,-0.26 0.2,-0.28zm-1.03 1.39l0.1 -0.02c0.13,-0.02 0.25,0.07 0.27,0.21l0.19 1.3c0.02,0.13 -0.07,0.25 -0.21,0.27l-0.1 0.01c-0.13,0.02 -0.25,-0.07 -0.27,-0.2l-0.19 -1.3c-0.02,-0.13 0.07,-0.25 0.21,-0.27zm41.48 -38.62l0.1 -0.02c0.13,-0.01 0.25,0.08 0.27,0.21l0.19 1.3c0.02,0.13 -0.07,0.25 -0.2,0.27l-0.11 0.02c-0.13,0.02 -0.25,-0.08 -0.27,-0.21l-0.19 -1.3c-0.02,-0.13 0.08,-0.25 0.21,-0.27zm-1.04 1.38l0.1 -0.01c0.14,-0.02 0.26,0.07 0.28,0.2l0.18 1.3c0.02,0.14 -0.07,0.26 -0.2,0.28l-0.1 0.01c-0.14,0.02 -0.26,-0.07 -0.28,-0.2l-0.18 -1.3c-0.02,-0.13 0.07,-0.26 0.2,-0.28zm-1.04 1.39l0.11 -0.02c0.13,-0.01 0.25,0.08 0.27,0.21l0.19 1.3c0.01,0.13 -0.08,0.25 -0.21,0.27l-0.1 0.02c-0.13,0.02 -0.26,-0.08 -0.28,-0.21l-0.18 -1.3c-0.02,-0.13 0.07,-0.25 0.2,-0.27zm-1.03 1.38l0.1 -0.01c0.13,-0.02 0.25,0.07 0.27,0.2l0.19 1.3c0.02,0.14 -0.07,0.26 -0.21,0.28l-0.1 0.01c-0.13,0.02 -0.25,-0.07 -0.27,-0.2l-0.19 -1.3c-0.02,-0.13 0.07,-0.26 0.21,-0.28zm-3.12 4.16l0.11 -0.02c0.13,-0.01 0.25,0.08 0.27,0.21l0.19 1.3c0.02,0.13 -0.08,0.25 -0.21,0.27l-0.1 0.02c-0.13,0.02 -0.26,-0.08 -0.27,-0.21l-0.19 -1.3c-0.02,-0.13 0.07,-0.25 0.2,-0.27zm-1.03 1.38l0.1 -0.01c0.13,-0.02 0.25,0.07 0.27,0.2l0.19 1.3c0.02,0.14 -0.07,0.26 -0.21,0.28l-0.1 0.01c-0.13,0.02 -0.25,-0.07 -0.27,-0.2l-0.19 -1.3c-0.02,-0.13 0.07,-0.26 0.21,-0.28zm-1.04 1.39l0.1 -0.02c0.13,-0.01 0.26,0.08 0.27,0.21l0.19 1.3c0.02,0.13 -0.07,0.25 -0.2,0.27l-0.11 0.02c-0.13,0.02 -0.25,-0.08 -0.27,-0.21l-0.19 -1.3c-0.01,-0.13 0.08,-0.25 0.21,-0.27zm-1.04 1.38l0.1 -0.01c0.14,-0.02 0.26,0.07 0.28,0.2l0.18 1.3c0.02,0.14 -0.07,0.26 -0.2,0.28l-0.1 0.01c-0.14,0.02 -0.26,-0.07 -0.28,-0.2l-0.18 -1.3c-0.02,-0.13 0.07,-0.26 0.2,-0.28zm-3.11 4.16l0.1 -0.02c0.13,-0.01 0.26,0.08 0.28,0.21l0.18 1.3c0.02,0.13 -0.07,0.25 -0.2,0.27l-0.11 0.02c-0.13,0.02 -0.25,-0.08 -0.27,-0.21l-0.19 -1.3c-0.01,-0.13 0.08,-0.25 0.21,-0.27zm-1.04 1.38l0.1 -0.01c0.14,-0.02 0.26,0.07 0.28,0.21l0.18 1.29c0.02,0.14 -0.07,0.26 -0.2,0.28l-0.1 0.01c-0.13,0.02 -0.26,-0.07 -0.28,-0.2l-0.18 -1.3c-0.02,-0.13 0.07,-0.26 0.2,-0.28zm-1.03 1.39l0.1 -0.02c0.13,-0.01 0.25,0.08 0.27,0.21l0.19 1.3c0.02,0.13 -0.08,0.25 -0.21,0.27l-0.1 0.02c-0.13,0.02 -0.25,-0.08 -0.27,-0.21l-0.19 -1.3c-0.02,-0.13 0.07,-0.25 0.21,-0.27zm-1.04 1.38l0.1 -0.01c0.13,-0.02 0.25,0.07 0.27,0.21l0.19 1.29c0.02,0.14 -0.07,0.26 -0.21,0.28l-0.1 0.01c-0.13,0.02 -0.25,-0.07 -0.27,-0.2l-0.19 -1.3c-0.02,-0.13 0.08,-0.26 0.21,-0.28zm-1.04 1.39l0.1 -0.02c0.13,-0.01 0.26,0.08 0.28,0.21l0.05 0.36c0.04,0.03 0.07,0.09 0.08,0.15l0.02 0.1c0.01,0.06 -0.01,0.12 -0.04,0.17l0.07 0.52c0.01,0.08 -0.01,0.15 -0.06,0.2l1.12 -0.16c0.14,-0.02 0.26,0.07 0.28,0.21l0.01 0.1c0.02,0.13 -0.07,0.25 -0.2,0.27l-1.3 0.19c-0.13,0.02 -0.26,-0.08 -0.28,-0.21l-0.01 -0.1c-0.01,-0.08 0.02,-0.16 0.08,-0.21 -0.11,-0.01 -0.2,-0.1 -0.22,-0.21l-0.06 -0.44 -0.9 0.13c-0.13,0.02 -0.25,-0.07 -0.27,-0.21l-0.02 -0.1c-0.01,-0.13 0.08,-0.25 0.21,-0.27l0.9 -0.13 -0.04 -0.28c-0.02,-0.13 0.07,-0.25 0.2,-0.27zm-1.04 1.38l0.1 -0.01c0.14,-0.02 0.26,0.07 0.28,0.21l0.18 1.29c0.02,0.14 -0.07,0.26 -0.2,0.28l-0.1 0.01c-0.13,0.02 -0.26,-0.07 -0.28,-0.2l-0.18 -1.3c-0.02,-0.13 0.07,-0.26 0.2,-0.28zm-1.03 1.39l0.1 -0.02c0.13,-0.01 0.25,0.08 0.27,0.21l0.19 1.3c0.02,0.13 -0.08,0.25 -0.21,0.27l-0.1 0.02c-0.13,0.02 -0.25,-0.08 -0.27,-0.21l-0.19 -1.3c-0.02,-0.13 0.07,-0.25 0.21,-0.27zm-1.04 1.38l0.1 -0.01c0.13,-0.02 0.25,0.07 0.27,0.21l0.19 1.29c0.02,0.14 -0.07,0.26 -0.21,0.28l-0.1 0.01c-0.13,0.02 -0.25,-0.07 -0.27,-0.2l-0.19 -1.3c-0.02,-0.13 0.08,-0.26 0.21,-0.28zm-1.04 1.39l0.1 -0.02c0.13,-0.01 0.26,0.08 0.28,0.21l0.18 1.3c0.02,0.13 -0.07,0.25 -0.2,0.27l-0.1 0.02c-0.14,0.02 -0.26,-0.08 -0.28,-0.21l-0.18 -1.3c-0.02,-0.13 0.07,-0.25 0.2,-0.27zm-1.04 1.38l0.11 -0.01c0.13,-0.02 0.25,0.07 0.27,0.21l0.19 1.29c0.01,0.14 -0.08,0.26 -0.21,0.28l-0.1 0.01c-0.13,0.02 -0.26,-0.07 -0.28,-0.2l-0.18 -1.3c-0.02,-0.13 0.07,-0.26 0.2,-0.28zm-2.07 2.78l0.1 -0.02c0.13,-0.02 0.26,0.07 0.27,0.21l0.19 1.29c0.02,0.14 -0.07,0.26 -0.2,0.28l-0.11 0.01c-0.13,0.02 -0.25,-0.07 -0.27,-0.2l-0.19 -1.3c-0.02,-0.13 0.08,-0.26 0.21,-0.27zm-1.04 1.38l0.1 -0.01c0.14,-0.02 0.26,0.07 0.28,0.2l0.18 1.3c0.02,0.13 -0.07,0.25 -0.2,0.27l-0.1 0.02c-0.14,0.02 -0.26,-0.08 -0.28,-0.21l-0.18 -1.3c-0.02,-0.13 0.07,-0.25 0.2,-0.27zm-1.04 1.39l0.11 -0.02c0.13,-0.02 0.25,0.07 0.27,0.21l0.19 1.29c0.02,0.14 -0.08,0.26 -0.21,0.28l-0.1 0.01c-0.13,0.02 -0.26,-0.07 -0.27,-0.2l-0.19 -1.3c-0.02,-0.13 0.07,-0.26 0.2,-0.27zm-1.03 1.38l0.1 -0.01c0.13,-0.02 0.25,0.07 0.27,0.2l0.19 1.3c0.02,0.13 -0.07,0.25 -0.21,0.27l-0.1 0.02c-0.13,0.02 -0.25,-0.08 -0.27,-0.21l-0.19 -1.3c-0.02,-0.13 0.08,-0.25 0.21,-0.27zm-1.04 1.39l0.1 -0.02c0.13,-0.02 0.26,0.07 0.28,0.21l0.18 1.29c0.02,0.14 -0.07,0.26 -0.2,0.28l-0.11 0.01c-0.13,0.02 -0.25,-0.07 -0.27,-0.2l-0.19 -1.3c-0.01,-0.13 0.08,-0.26 0.21,-0.27zm-0.86 1.37c0.1,0.01 0.18,0.09 0.2,0.2l0.07 0.54 0.83 -0.12c0.14,-0.02 0.26,0.07 0.28,0.21l0.01 0.1c0.02,0.13 -0.07,0.25 -0.2,0.27l-0.83 0.12 0.02 0.18c0.02,0.13 -0.07,0.25 -0.2,0.27l-0.1 0.02c-0.13,0.02 -0.26,-0.08 -0.28,-0.21l-0.03 -0.2c-0.08,-0.03 -0.14,-0.11 -0.16,-0.2l-0.01 -0.1c-0.01,-0.09 0.03,-0.18 0.1,-0.23l-0.08 -0.57c-0.01,-0.03 -0.01,-0.06 0,-0.09l-1.12 0.16c-0.13,0.02 -0.25,-0.07 -0.27,-0.2l-0.01 -0.11c-0.02,-0.13 0.07,-0.25 0.2,-0.27l1.3 -0.19c0.13,-0.02 0.25,0.08 0.27,0.21l0.02 0.1c0,0.04 0,0.07 -0.01,0.11zm-1.22 1.4l0.11 -0.02c0.13,-0.02 0.25,0.07 0.27,0.21l0.19 1.29c0.02,0.14 -0.08,0.26 -0.21,0.28l-0.1 0.01c-0.13,0.02 -0.26,-0.07 -0.27,-0.2l-0.19 -1.3c-0.02,-0.13 0.07,-0.26 0.2,-0.27zm-1.03 1.38l0.1 -0.01c0.13,-0.02 0.25,0.07 0.27,0.2l0.19 1.3c0.02,0.13 -0.07,0.25 -0.21,0.27l-0.1 0.02c-0.13,0.02 -0.25,-0.08 -0.27,-0.21l-0.19 -1.3c-0.02,-0.13 0.08,-0.25 0.21,-0.27zm-1.04 1.39l0.1 -0.02c0.13,-0.02 0.26,0.07 0.28,0.21l0.18 1.29c0.02,0.14 -0.07,0.26 -0.2,0.28l-0.11 0.01c-0.13,0.02 -0.25,-0.07 -0.27,-0.2l-0.18 -1.3c-0.02,-0.13 0.07,-0.26 0.2,-0.27zm-1.04 1.38l0.1 -0.01c0.14,-0.02 0.26,0.07 0.28,0.2l0.18 1.3c0.02,0.13 -0.07,0.25 -0.2,0.27l-0.1 0.02c-0.13,0.02 -0.26,-0.07 -0.28,-0.21l-0.18 -1.3c-0.02,-0.13 0.07,-0.25 0.2,-0.27zm-2.07 2.77l0.1 -0.01c0.13,-0.02 0.25,0.07 0.27,0.2l0.19 1.3c0.02,0.13 -0.07,0.25 -0.21,0.27l-0.1 0.02c-0.13,0.02 -0.25,-0.07 -0.27,-0.21l-0.19 -1.3c-0.02,-0.13 0.08,-0.25 0.21,-0.27zm21.63 2.88l0.01 0.1c0.02,0.13 -0.07,0.26 -0.2,0.27l-1.3 0.19c-0.13,0.02 -0.26,-0.07 -0.27,-0.2l-0.02 -0.11c-0.02,-0.13 0.07,-0.25 0.21,-0.27l1.29 -0.19c0.14,-0.01 0.26,0.08 0.28,0.21zm-1.39 -1.04l0.02 0.1c0.02,0.14 -0.07,0.26 -0.21,0.28l-1.3 0.18c-0.13,0.02 -0.25,-0.07 -0.27,-0.2l-0.01 -0.1c-0.02,-0.14 0.07,-0.26 0.2,-0.28l1.3 -0.18c0.13,-0.02 0.25,0.07 0.27,0.2zm-1.38 -1.04l0.01 0.11c0.02,0.13 -0.07,0.25 -0.2,0.27l-1.3 0.19c-0.13,0.02 -0.26,-0.08 -0.28,-0.21l-0.01 -0.1c-0.02,-0.13 0.07,-0.25 0.21,-0.27l1.29 -0.19c0.14,-0.02 0.26,0.07 0.28,0.2zm-1.39 -1.03l0.02 0.1c0.02,0.13 -0.08,0.25 -0.21,0.27l-1.3 0.19c-0.13,0.02 -0.25,-0.07 -0.27,-0.21l-0.01 -0.1c-0.02,-0.13 0.07,-0.25 0.2,-0.27l1.3 -0.19c0.13,-0.02 0.25,0.08 0.27,0.21zm-2.77 -2.08l0.02 0.1c0.02,0.14 -0.08,0.26 -0.21,0.28l-1.3 0.18c-0.13,0.02 -0.25,-0.07 -0.27,-0.2l-0.01 -0.1c-0.02,-0.13 0.07,-0.26 0.2,-0.28l1.3 -0.18c0.13,-0.02 0.25,0.07 0.27,0.2zm-1.38 -1.03l0.01 0.1c0.02,0.13 -0.07,0.25 -0.2,0.27l-1.3 0.19c-0.13,0.02 -0.26,-0.08 -0.28,-0.21l-0.01 -0.1c-0.02,-0.13 0.07,-0.25 0.21,-0.27l1.29 -0.19c0.14,-0.02 0.26,0.07 0.28,0.21zm-1.39 -1.04l0.02 0.1c0.02,0.13 -0.08,0.25 -0.21,0.27l-1.3 0.19c-0.13,0.02 -0.25,-0.07 -0.27,-0.21l-0.01 -0.1c-0.02,-0.13 0.07,-0.25 0.2,-0.27l1.3 -0.19c0.13,-0.02 0.25,0.08 0.27,0.21zm-1.38 -1.04l0.01 0.1c0.02,0.13 -0.07,0.26 -0.2,0.28l-1.3 0.18c-0.13,0.02 -0.26,-0.07 -0.28,-0.2l-0.01 -0.1c-0.02,-0.14 0.07,-0.26 0.21,-0.28l1.29 -0.18c0.14,-0.02 0.26,0.07 0.28,0.2zm-1.39 -1.04l0.02 0.11c0.02,0.13 -0.08,0.25 -0.21,0.27l-1.3 0.19c-0.13,0.01 -0.25,-0.08 -0.27,-0.21l-0.01 -0.1c-0.02,-0.13 0.07,-0.26 0.2,-0.28l1.3 -0.18c0.13,-0.02 0.25,0.07 0.27,0.2zm-4.15 -3.11l0.01 0.1c0.02,0.14 -0.07,0.26 -0.2,0.28l-1.3 0.18c-0.13,0.02 -0.26,-0.07 -0.28,-0.2l-0.01 -0.1c-0.02,-0.14 0.07,-0.26 0.21,-0.28l1.29 -0.18c0.14,-0.02 0.26,0.07 0.28,0.2zm-1.39 -1.04l0.02 0.11c0.02,0.13 -0.08,0.25 -0.21,0.27l-1.3 0.19c-0.13,0.01 -0.25,-0.08 -0.27,-0.21l-0.02 -0.1c-0.01,-0.13 0.08,-0.26 0.21,-0.28l1.3 -0.18c0.13,-0.02 0.25,0.07 0.27,0.2zm-1.38 -1.03l0.01 0.1c0.02,0.13 -0.07,0.25 -0.2,0.27l-1.3 0.19c-0.13,0.02 -0.26,-0.07 -0.28,-0.21l-0.01 -0.1c-0.02,-0.13 0.07,-0.25 0.2,-0.27l1.3 -0.19c0.14,-0.02 0.26,0.07 0.28,0.21zm-1.39 -1.04l0.02 0.1c0.02,0.13 -0.08,0.25 -0.21,0.27l-1.3 0.19c-0.13,0.02 -0.25,-0.07 -0.27,-0.2l-0.02 -0.11c-0.01,-0.13 0.08,-0.25 0.21,-0.27l1.3 -0.19c0.13,-0.01 0.25,0.08 0.27,0.21zm-2.77 -2.08l0.02 0.11c0.02,0.13 -0.08,0.25 -0.21,0.27l-1.3 0.19c-0.13,0.02 -0.25,-0.08 -0.27,-0.21l-0.02 -0.1c-0.01,-0.13 0.08,-0.26 0.21,-0.27l1.3 -0.19c0.13,-0.02 0.25,0.07 0.27,0.2zm-1.38 -1.03l0.01 0.1c0.02,0.13 -0.07,0.25 -0.2,0.27l-1.3 0.19c-0.13,0.02 -0.26,-0.07 -0.28,-0.21l-0.01 -0.1c-0.02,-0.13 0.07,-0.25 0.2,-0.27l1.3 -0.19c0.14,-0.02 0.26,0.07 0.28,0.21zm-1.39 -1.04l0.02 0.1c0.02,0.13 -0.08,0.26 -0.21,0.27l-1.3 0.19c-0.13,0.02 -0.25,-0.07 -0.27,-0.2l-0.02 -0.11c-0.01,-0.13 0.08,-0.25 0.21,-0.27l1.3 -0.19c0.13,-0.01 0.25,0.08 0.27,0.21zm32.18 -1.18l0.02 0.1c0.02,0.14 -0.08,0.26 -0.21,0.28l-1.3 0.18c-0.13,0.02 -0.25,-0.07 -0.27,-0.2l-0.01 -0.1c-0.02,-0.14 0.07,-0.26 0.2,-0.28l1.3 -0.18c0.13,-0.02 0.25,0.07 0.27,0.2zm-1.38 -1.04l0.01 0.11c0.02,0.13 -0.07,0.25 -0.2,0.27l-1.3 0.19c-0.13,0.02 -0.26,-0.08 -0.28,-0.21l-0.01 -0.1c-0.02,-0.13 0.07,-0.26 0.21,-0.27l1.29 -0.19c0.14,-0.02 0.26,0.07 0.28,0.2zm-1.39 -1.03l0.02 0.1c0.02,0.13 -0.08,0.25 -0.21,0.27l-1.3 0.19c-0.13,0.02 -0.25,-0.07 -0.27,-0.21l-0.01 -0.1c-0.02,-0.13 0.07,-0.25 0.2,-0.27l1.3 -0.19c0.13,-0.02 0.25,0.08 0.27,0.21zm-1.38 -1.04l0.01 0.1c0.02,0.13 -0.07,0.26 -0.2,0.28l-1.3 0.18c-0.13,0.02 -0.26,-0.07 -0.28,-0.2l-0.01 -0.11c-0.02,-0.13 0.07,-0.25 0.21,-0.27l1.29 -0.19c0.14,-0.01 0.26,0.08 0.28,0.21zm-1.39 -1.04l0.02 0.1c0.02,0.14 -0.08,0.26 -0.21,0.28l-1.3 0.18c-0.13,0.02 -0.25,-0.07 -0.27,-0.2l-0.01 -0.1c-0.02,-0.13 0.07,-0.26 0.2,-0.28l1.3 -0.18c0.13,-0.02 0.25,0.07 0.27,0.2zm-4.15 -3.11l0.01 0.1c0.02,0.13 -0.07,0.26 -0.2,0.28l-1.3 0.18c-0.13,0.02 -0.26,-0.07 -0.28,-0.2l-0.01 -0.1c-0.02,-0.14 0.07,-0.26 0.2,-0.28l1.3 -0.18c0.14,-0.02 0.26,0.07 0.28,0.2zm-1.39 -1.04l0.02 0.11c0.02,0.13 -0.08,0.25 -0.21,0.27l-1.3 0.19c-0.13,0.01 -0.25,-0.08 -0.27,-0.21l-0.02 -0.1c-0.01,-0.13 0.08,-0.26 0.21,-0.28l1.3 -0.18c0.13,-0.02 0.25,0.07 0.27,0.2zm-1.38 -1.03l0.01 0.1c0.02,0.13 -0.07,0.25 -0.2,0.27l-1.3 0.19c-0.13,0.02 -0.26,-0.08 -0.28,-0.21l-0.01 -0.1c-0.02,-0.13 0.07,-0.25 0.2,-0.27l1.3 -0.19c0.14,-0.02 0.26,0.07 0.28,0.21zm-1.39 -1.04l0.02 0.1c0.02,0.13 -0.08,0.25 -0.21,0.27l-1.3 0.19c-0.13,0.02 -0.25,-0.07 -0.27,-0.2l-0.02 -0.11c-0.01,-0.13 0.08,-0.25 0.21,-0.27l1.3 -0.19c0.13,-0.02 0.25,0.08 0.27,0.21zm-4.15 -3.11l0.01 0.1c0.02,0.13 -0.07,0.25 -0.2,0.27l-1.3 0.19c-0.13,0.02 -0.26,-0.07 -0.28,-0.21l-0.01 -0.1c-0.02,-0.13 0.07,-0.25 0.2,-0.27l1.3 -0.19c0.14,-0.02 0.26,0.07 0.28,0.21zm-1.39 -1.04l0.02 0.1c0.02,0.13 -0.08,0.25 -0.21,0.27l-1.3 0.19c-0.13,0.02 -0.25,-0.07 -0.27,-0.2l-0.02 -0.11c-0.01,-0.13 0.08,-0.25 0.21,-0.27l1.3 -0.19c0.13,-0.02 0.25,0.08 0.27,0.21zm-1.38 -1.04l0.01 0.1c0.02,0.14 -0.07,0.26 -0.2,0.28l-1.3 0.18c-0.13,0.02 -0.26,-0.07 -0.28,-0.2l-0.01 -0.1c-0.02,-0.14 0.07,-0.26 0.2,-0.28l1.3 -0.18c0.14,-0.02 0.26,0.07 0.28,0.2zm-1.39 -1.04l0.02 0.11c0.02,0.13 -0.08,0.25 -0.21,0.27l-1.3 0.19c-0.13,0.02 -0.25,-0.08 -0.27,-0.21l-0.02 -0.1c-0.01,-0.13 0.08,-0.26 0.21,-0.27l1.3 -0.19c0.13,-0.02 0.25,0.07 0.27,0.2zm-2.77 -2.07l0.02 0.1c0.02,0.13 -0.08,0.26 -0.21,0.27l-1.3 0.19c-0.13,0.02 -0.25,-0.07 -0.27,-0.2l-0.02 -0.11c-0.01,-0.13 0.08,-0.25 0.21,-0.27l1.3 -0.19c0.13,-0.01 0.25,0.08 0.27,0.21zm-1.38 -1.04l0.01 0.1c0.02,0.14 -0.07,0.26 -0.2,0.28l-1.3 0.18c-0.13,0.02 -0.26,-0.07 -0.28,-0.2l-0.01 -0.1c-0.02,-0.14 0.07,-0.26 0.2,-0.28l1.3 -0.18c0.14,-0.02 0.26,0.07 0.28,0.2zm-1.39 -1.04l0.02 0.11c0.02,0.13 -0.08,0.25 -0.21,0.27l-1.3 0.19c-0.13,0.02 -0.25,-0.08 -0.27,-0.21l-0.02 -0.1c-0.01,-0.13 0.08,-0.25 0.21,-0.27l1.3 -0.19c0.13,-0.02 0.25,0.07 0.27,0.2zm35.42 26.41c5.29,-0.04 7.31,2.96 12.29,3.27 5.33,0.33 9.92,-3.72 10.25,-9.05 0.34,-5.33 -3.71,-9.92 -9.04,-10.25 -4.97,-0.32 -7.35,2.4 -12.6,1.7 -1.36,2.03 -2.22,4.43 -2.39,7.04 -0.16,2.61 0.39,5.11 1.49,7.29zm2.49 -16.29c1.36,0.04 2.58,-0.21 4.11,-0.7 2.54,-0.8 4.3,-1.31 7.03,-1.14 6.49,0.41 11.41,6 11,12.48 -0.41,6.49 -5.99,11.42 -12.47,11.01 -2.74,-0.17 -4.42,-0.89 -6.84,-2.01 -1.45,-0.67 -2.63,-1.07 -3.99,-1.21 2.44,3.26 6.26,5.47 10.67,5.75 7.94,0.5 14.78,-5.49 15.28,-13.37 0.49,-7.88 -5.54,-14.68 -13.49,-15.18 -4.4,-0.27 -8.47,1.44 -11.3,4.37z"/>
 </g>
</svg>
